<svg width="246" height="221" viewBox="0 0 246 221" fill="none" xmlns="http://www.w3.org/2000/svg">
<path opacity="0.8" d="M173.85 194.997H69.6524C67.7906 194.997 66.2391 193.446 66.2391 191.584C66.2391 189.722 67.7906 188.171 69.6524 188.171H173.85C175.712 188.171 177.263 189.722 177.263 191.584C177.263 193.446 175.712 194.997 173.85 194.997Z" fill="#E5E7EB"/>
<path opacity="0.8" d="M241.031 221H4.65573C2.64002 221 0.960266 219.54 0.960266 217.788C0.960266 216.036 2.64002 214.576 4.65573 214.576H241.031C243.047 214.576 244.727 216.036 244.727 217.788C244.727 219.598 243.047 221 241.031 221Z" fill="#E5E7EB"/>
<path d="M230.945 127.663H12.4959V10.7433C12.4959 5.34416 16.84 1 22.2392 1H220.891C226.414 1 230.945 5.53033 230.945 11.0536V127.663Z" fill="#9CA3AF"/>
<path d="M16.22 118.355V10.3715C16.22 7.2685 18.7024 4.78613 21.8054 4.78613H221.636C224.739 4.78613 227.222 7.2685 227.222 10.3715V118.355C227.222 121.458 224.739 123.94 221.636 123.94H21.8054C18.7645 123.94 16.22 121.395 16.22 118.355Z" fill="#9CA3AF"/>
<path d="M230.945 127.663H12.4959V10.7433C12.4959 5.34416 16.84 1 22.2392 1H220.891C226.414 1 230.945 5.53034 230.945 11.0536V127.663Z" stroke="#9CA3AF" stroke-miterlimit="10" stroke-linecap="round" stroke-linejoin="round"/>
<path d="M218.524 115.202V13.4248H24.899V115.202H218.524Z" fill="#1F2937"/>
<path d="M220.829 157.452H22.3013C16.9021 157.452 12.4959 153.045 12.4959 147.646V127.663H230.945V147.336C230.945 152.859 226.414 157.452 220.829 157.452Z" fill="#064E3B"/>
<path d="M22.3014 152.487C19.6329 152.487 17.4608 150.315 17.4608 147.646V129.711H225.98V147.336C225.98 150.19 223.684 152.487 220.829 152.487H22.3014Z" fill="#022C22"/>
<path d="M220.829 157.452H22.3013C16.9021 157.452 12.4959 153.045 12.4959 147.646V127.663H230.945V147.336C230.945 152.859 226.414 157.452 220.829 157.452Z" stroke="#9CA3AF" stroke-miterlimit="10" stroke-linecap="round" stroke-linejoin="round"/>
<path d="M23.4338 42.0184L23.4338 95.0088L149.975 95.0088L149.975 42.0184L23.4338 42.0184Z" fill="#1E3A8A"/>
<path d="M43.7468 52.6165L61.5869 52.6164C64.5191 52.6164 66.886 54.9834 66.886 57.9155C66.886 60.8476 64.5191 63.2145 61.5869 63.2145L37.5646 63.2145C34.6325 63.2145 32.2656 65.5814 32.2656 68.5136C32.2656 71.4457 34.6325 73.8126 37.5646 73.8126L61.5869 73.8126C64.5191 73.8126 66.886 76.1795 66.886 79.1117C66.886 82.0438 64.5191 84.4107 61.5869 84.4107L53.4617 84.4107C50.5296 84.4107 48.1627 86.7776 48.1627 89.7097C48.1627 92.6419 50.5296 95.0088 53.4617 95.0088L66.886 95.0088L70.7719 95.0088L145.736 95.0088L145.736 42.0184L70.7719 42.0184L66.886 42.0184L43.7468 42.0184C40.8147 42.0184 38.4478 44.3853 38.4478 47.3174C38.4478 50.2142 40.8147 52.6165 43.7468 52.6165Z" fill="#D1FAE5"/>
<path d="M47.986 52.6165L65.8261 52.6164C68.7582 52.6164 71.1251 54.9834 71.1251 57.9155C71.1251 60.8476 68.7582 63.2145 65.8261 63.2145L41.8037 63.2145C38.8716 63.2145 36.5047 65.5814 36.5047 68.5136C36.5047 71.4457 38.8716 73.8126 41.8037 73.8126L65.8261 73.8126C68.7582 73.8126 71.1251 76.1795 71.1251 79.1117C71.1251 82.0438 68.7582 84.4107 65.8261 84.4107L57.7009 84.4107C54.7687 84.4107 52.4018 86.7776 52.4018 89.7097C52.4018 92.6419 54.7687 95.0088 57.7009 95.0088L71.1251 95.0088L75.0111 95.0088L149.975 95.0088L149.975 42.0184L75.0111 42.0184L71.1251 42.0184L47.986 42.0184C45.0538 42.0184 42.6869 44.3853 42.6869 47.3174C42.6869 50.2142 45.0538 52.6165 47.986 52.6165Z" fill="#10B981"/>
<path d="M81.8292 52.6165L106.947 52.6164C109.879 52.6164 112.246 54.9834 112.246 57.9155C112.246 60.8476 109.879 63.2145 106.947 63.2145L93.9463 63.2145C91.0142 63.2145 88.6473 65.5814 88.6473 68.5136C88.6473 71.4457 91.0142 73.8126 93.9463 73.8126L106.947 73.8126C109.879 73.8126 112.246 76.1795 112.246 79.1117C112.246 82.0438 109.879 84.4107 106.947 84.4107L89.1065 84.4107C86.1744 84.4107 83.8075 86.7776 83.8075 89.7097C83.8075 92.6419 86.1744 95.0088 89.1065 95.0088L112.246 95.0088L116.132 95.0088L147.043 95.0088L147.043 42.0184L116.132 42.0184L112.246 42.0184L81.8292 42.0184C78.8971 42.0184 76.5301 44.3853 76.5301 47.3174C76.5301 50.2142 78.8971 52.6165 81.8292 52.6165Z" fill="#10B981"/>
<path d="M47.986 52.6165L65.8261 52.6164C68.7582 52.6164 71.1251 54.9834 71.1251 57.9155C71.1251 60.8476 68.7582 63.2145 65.8261 63.2145L41.8037 63.2145C38.8716 63.2145 36.5047 65.5814 36.5047 68.5136C36.5047 71.4457 38.8716 73.8126 41.8037 73.8126L65.8261 73.8126C68.7582 73.8126 71.1251 76.1795 71.1251 79.1117C71.1251 82.0438 68.7582 84.4107 65.8261 84.4107L57.7009 84.4107C54.7687 84.4107 52.4018 86.7776 52.4018 89.7097C52.4018 92.6419 54.7687 95.0088 57.7009 95.0088L71.1251 95.0088L75.0111 95.0088L149.975 95.0088L149.975 42.0184L75.0111 42.0184L71.1251 42.0184L47.986 42.0184C45.0538 42.0184 42.6869 44.3853 42.6869 47.3174C42.6869 50.2142 45.0538 52.6165 47.986 52.6165Z" stroke="#9CA3AF" stroke-miterlimit="10" stroke-linecap="round" stroke-linejoin="round"/>
<path d="M86.4217 52.6165L111.539 52.6164C114.471 52.6164 116.838 54.9834 116.838 57.9155C116.838 60.8476 114.471 63.2145 111.539 63.2145L98.5389 63.2145C95.6067 63.2145 93.2398 65.5814 93.2398 68.5136C93.2398 71.4457 95.6067 73.8126 98.5389 73.8126L111.539 73.8126C114.471 73.8126 116.838 76.1795 116.838 79.1117C116.838 82.0438 114.471 84.4107 111.539 84.4107L93.6991 84.4107C90.7669 84.4107 88.4 86.7776 88.4 89.7097C88.4 92.6419 90.7669 95.0088 93.6991 95.0088L116.838 95.0088L120.724 95.0088L151.635 95.0088L151.635 42.0184L120.724 42.0184L116.838 42.0184L86.4217 42.0184C83.4896 42.0184 81.1227 44.3853 81.1227 47.3174C81.1227 50.2142 83.4896 52.6165 86.4217 52.6165Z" fill="#022C22"/>
<path opacity="0.14" d="M137.187 42.0184L137.187 95.0088L149.975 95.0088L149.975 42.0184L137.187 42.0184Z" fill="#D1FAE5"/>
<path d="M86.4217 52.6165L111.539 52.6164C114.471 52.6164 116.838 54.9834 116.838 57.9155C116.838 60.8476 114.471 63.2145 111.539 63.2145L98.5389 63.2145C95.6067 63.2145 93.2398 65.5814 93.2398 68.5136C93.2398 71.4457 95.6067 73.8126 98.5389 73.8126L111.539 73.8126C114.471 73.8126 116.838 76.1795 116.838 79.1117C116.838 82.0438 114.471 84.4107 111.539 84.4107L93.6991 84.4107C90.7669 84.4107 88.4 86.7776 88.4 89.7097C88.4 92.6419 90.7669 95.0088 93.6991 95.0088L116.838 95.0088L120.724 95.0088L151.635 95.0088L151.635 42.0184L120.724 42.0184L116.838 42.0184L86.4217 42.0184C83.4896 42.0184 81.1227 44.3853 81.1227 47.3174C81.1227 50.2142 83.4896 52.6165 86.4217 52.6165Z" stroke="#9CA3AF" stroke-miterlimit="10" stroke-linecap="round" stroke-linejoin="round"/>
<path d="M23.4338 42.0184L23.4338 95.0088L149.975 95.0088L149.975 42.0184L23.4338 42.0184Z" stroke="#9CA3AF" stroke-miterlimit="10" stroke-linecap="round" stroke-linejoin="round"/>
<path d="M204.096 69.3262L196.43 69.3262C191.307 69.3262 187.139 65.1576 187.139 60.0352L187.139 32.6921C187.139 27.5697 182.97 23.4011 177.848 23.4011L169.829 23.4011C164.706 23.4011 160.538 27.5697 160.538 32.6921L160.538 41.0646" stroke="#9CA3AF" stroke-miterlimit="10" stroke-linecap="round" stroke-linejoin="round"/>
<path d="M174.704 43.5013L174.704 93.8069C174.704 97.5869 171.63 100.625 167.886 100.625L153.296 100.625C149.516 100.625 146.478 97.5515 146.478 93.8069L146.478 43.5366C146.478 39.7566 149.551 36.7185 153.296 36.7185L167.886 36.7185C171.63 36.6832 174.704 39.7567 174.704 43.5013Z" fill="#022C22"/>
<path opacity="0.05" d="M168.062 46.1517L168.062 91.1935C168.062 92.3946 167.073 93.3838 165.872 93.3838C164.671 93.3838 163.682 92.3946 163.682 91.1935L163.682 46.1517C163.682 44.9505 164.671 43.9614 165.872 43.9614C167.073 43.9614 168.062 44.9505 168.062 46.1517Z" fill="#D1FAE5"/>
<path opacity="0.05" d="M161.668 45.0557L161.668 92.2525C161.668 92.8531 161.173 93.3477 160.573 93.3477C159.972 93.3477 159.478 92.8531 159.478 92.2525L159.478 45.0204C159.478 44.4198 159.972 43.9253 160.573 43.9253C161.209 43.9606 161.668 44.4552 161.668 45.0557Z" fill="#D1FAE5"/>
<path opacity="0.14" d="M146.442 43.5018L146.442 43.8904C147.361 43.4311 148.385 43.1485 149.516 43.1485L165.801 43.1485C168.628 43.1485 170.959 45.4447 170.959 48.3062L170.959 91.8997C170.959 93.984 172.655 95.6797 174.739 95.6797L174.739 43.5371C174.739 39.7571 171.666 36.719 167.921 36.719L153.331 36.719C149.48 36.6837 146.442 39.7571 146.442 43.5018Z" fill="#D1FAE5"/>
<path opacity="0.15" d="M150.964 40.9224L150.964 96.3857C150.964 97.4102 150.152 98.2227 149.127 98.2227C148.103 98.2227 147.29 97.4102 147.29 96.3857L147.29 40.9224C147.29 39.8979 148.103 39.0854 149.127 39.0854C150.152 39.0854 150.964 39.8979 150.964 40.9224Z" fill="#022C22"/>
<path d="M174.704 43.5013L174.704 93.8069C174.704 97.5869 171.63 100.625 167.886 100.625L153.296 100.625C149.516 100.625 146.478 97.5515 146.478 93.8069L146.478 43.5366C146.478 39.7566 149.551 36.7185 153.296 36.7185L167.886 36.7185C171.63 36.6832 174.704 39.7567 174.704 43.5013Z" stroke="#9CA3AF" stroke-miterlimit="10" stroke-linecap="round" stroke-linejoin="round"/>
<path d="M245.04 69.325C245.04 73.4582 241.684 76.8496 237.515 76.8496L213.352 76.8496C209.218 76.8496 205.827 73.4936 205.827 69.325C205.827 65.1917 209.183 61.8003 213.352 61.8003L237.515 61.8003C241.684 61.8357 245.04 65.1917 245.04 69.325Z" fill="#1E3A8A"/>
<path opacity="0.21" d="M240.518 74.4117C240.518 75.4715 239.67 76.3193 238.61 76.3193L211.514 76.3193C210.455 76.3193 209.607 75.4715 209.607 74.4117C209.607 73.3519 210.455 72.504 211.514 72.504L238.61 72.504C239.67 72.504 240.518 73.3519 240.518 74.4117Z" fill="#1E3A8A"/>
<path d="M206.109 67.4169C207.416 66.3571 209.077 65.6859 210.879 65.6859L235.042 65.6859C239.175 65.6859 242.567 69.0419 242.567 73.2105C242.567 73.8817 242.461 74.5176 242.319 75.1182C243.98 73.7404 245.04 71.6561 245.04 69.3245C245.04 65.1913 241.684 61.7999 237.515 61.7999L213.351 61.7999C209.889 61.8352 206.957 64.2021 206.109 67.4169Z" fill="#10B981"/>
<path d="M245.04 69.325C245.04 73.4582 241.684 76.8496 237.515 76.8496L213.352 76.8496C209.218 76.8496 205.827 73.4936 205.827 69.325C205.827 65.1917 209.183 61.8003 213.352 61.8003L237.515 61.8003C241.684 61.8357 245.04 65.1917 245.04 69.325Z" stroke="#9CA3AF" stroke-miterlimit="10" stroke-linecap="round" stroke-linejoin="round"/>
<path d="M207.628 65.0504L207.628 73.6349C207.628 75.4012 206.18 76.8496 204.414 76.8496C202.647 76.8496 201.199 75.4012 201.199 73.6349L201.199 65.0504C201.199 63.2841 202.647 61.8357 204.414 61.8357C206.18 61.8357 207.628 63.2841 207.628 65.0504Z" fill="#10B981"/>
<path opacity="0.21" d="M206.569 74.6594C206.569 73.4498 205.588 72.4691 204.378 72.4691C203.169 72.4691 202.188 73.4498 202.188 74.6594C202.188 75.869 203.169 76.8496 204.378 76.8496C205.588 76.8496 206.569 75.869 206.569 74.6594Z" fill="#1E3A8A"/>
<path d="M201.164 65.0508L201.164 70.1025C201.164 68.3362 202.612 66.8878 204.378 66.8878C206.145 66.8878 207.593 68.3362 207.593 70.1025L207.593 65.0508C207.593 63.2844 206.145 61.836 204.378 61.836C202.612 61.836 201.164 63.2844 201.164 65.0508Z" fill="#022C22"/>
<path d="M207.628 65.0504L207.628 73.6349C207.628 75.4012 206.18 76.8496 204.414 76.8496C202.647 76.8496 201.199 75.4012 201.199 73.6349L201.199 65.0504C201.199 63.2841 202.647 61.8357 204.414 61.8357C206.18 61.8357 207.628 63.2841 207.628 65.0504Z" stroke="#9CA3AF" stroke-miterlimit="10" stroke-linecap="round" stroke-linejoin="round"/>
<path d="M165.872 36.6836L165.872 36.2597C165.872 34.9172 164.777 33.8574 163.47 33.8574L157.676 33.8574C156.334 33.8574 155.274 34.9526 155.274 36.2597L155.274 36.6836L165.872 36.6836Z" stroke="#9CA3AF" stroke-miterlimit="10" stroke-linecap="round" stroke-linejoin="round"/>
<path d="M165.872 36.6836L165.872 36.2597C165.872 34.9172 164.777 33.8574 163.47 33.8574L157.676 33.8574C156.334 33.8574 155.274 34.9526 155.274 36.2597L155.274 36.6836L165.872 36.6836Z" fill="#9CA3AF"/>
<path d="M85.1853 68.441L79.533 72.2563C76.5655 74.2699 72.3969 72.3976 72.1497 68.7942C72.1497 68.6882 72.1497 68.5469 72.1497 68.441C72.1497 68.335 72.1497 68.1937 72.1497 68.0877C72.3969 64.5197 76.5302 62.6473 79.533 64.6257L85.1853 68.441Z" fill="#10B981"/>
<path d="M87.6581 68.441L82.0058 72.2563C79.0384 74.2699 74.8698 72.3976 74.6225 68.7942C74.6225 68.6882 74.6225 68.5469 74.6225 68.441C74.6225 68.335 74.6225 68.1937 74.6225 68.0877C74.8698 64.5197 79.003 62.6473 82.0058 64.6257L87.6581 68.441Z" fill="#022C22"/>
<path d="M87.6581 68.441L82.0058 72.2563C79.0384 74.2699 74.8698 72.3976 74.6225 68.7942C74.6225 68.6882 74.6225 68.5469 74.6225 68.441C74.6225 68.335 74.6225 68.1937 74.6225 68.0877C74.8698 64.5197 79.003 62.6473 82.0058 64.6257L87.6581 68.441Z" stroke="#9CA3AF" stroke-miterlimit="10" stroke-linecap="round" stroke-linejoin="round"/>
<path opacity="0.4" d="M153.437 91.4062L153.437 61.8376" stroke="#1F2937" stroke-miterlimit="10" stroke-linecap="round" stroke-linejoin="round"/>
<path opacity="0.4" d="M153.437 55.7949L153.437 51.5557" stroke="#1F2937" stroke-miterlimit="10" stroke-linecap="round" stroke-linejoin="round"/>
<path d="M238.963 69.3264C238.963 68.0194 237.904 66.9595 236.597 66.9595C235.289 66.9595 234.23 68.0194 234.23 69.3264C234.23 70.6335 235.289 71.6934 236.597 71.6934C237.904 71.6934 238.963 70.6335 238.963 69.3264Z" fill="#E5E7EB"/>
<path d="M238.963 69.3264C238.963 68.0194 237.904 66.9595 236.597 66.9595C235.289 66.9595 234.23 68.0194 234.23 69.3264C234.23 70.6335 235.289 71.6934 236.597 71.6934C237.904 71.6934 238.963 70.6335 238.963 69.3264Z" stroke="#9CA3AF" stroke-miterlimit="10" stroke-linecap="round" stroke-linejoin="round"/>
</svg>
