<svg width="318" height="220" viewBox="0 0 318 220" fill="none" xmlns="http://www.w3.org/2000/svg">
<path d="M306.332 174.003H87.9946C81.851 174.003 76.871 169.023 76.871 162.88V44.7973C76.871 38.6537 81.851 33.6738 87.9946 33.6738H306.332C312.476 33.6738 317.455 38.6537 317.455 44.7973V162.88C317.455 169.023 312.476 174.003 306.332 174.003Z" fill="#60A5FA"/>
<path d="M136.66 139.674C136.66 137.218 138.651 135.226 141.108 135.226C123.8 135.226 109.719 121.145 109.719 103.838C109.719 86.5299 123.8 72.4491 141.108 72.4491C158.416 72.4491 172.496 86.5299 172.496 103.838C172.496 101.382 174.487 99.3898 176.944 99.3898C179.401 99.3898 181.392 101.38 181.392 103.838C181.392 81.6254 163.322 63.5547 141.109 63.5547C118.897 63.5547 100.827 81.6268 100.827 103.838C100.827 126.05 118.897 144.12 141.109 144.12C138.651 144.122 136.66 142.13 136.66 139.674Z" fill="#1F2937"/>
<path d="M176.943 99.3906C174.487 99.3906 172.495 101.381 172.495 103.839C172.495 121.146 158.414 135.227 141.107 135.227C138.651 135.227 136.659 137.218 136.659 139.675C136.659 142.132 138.65 144.122 141.107 144.122C163.319 144.122 181.389 126.052 181.389 103.84C181.391 101.381 179.4 99.3906 176.943 99.3906Z" fill="#064E3B"/>
<path d="M290.617 77.3102H210.532C209.214 77.3102 208.147 76.2429 208.147 74.9256C208.147 73.6083 209.214 72.541 210.532 72.541H290.617C291.934 72.541 293.001 73.6083 293.001 74.9256C293.001 76.2415 291.934 77.3102 290.617 77.3102Z" fill="#1F2937"/>
<path d="M252.841 90.3137H210.532C209.214 90.3137 208.147 89.2468 208.147 87.9295C208.147 86.6122 209.214 85.5449 210.532 85.5449H252.841C254.159 85.5449 255.226 86.6122 255.226 87.9295C255.226 89.2468 254.159 90.3137 252.841 90.3137Z" fill="#1F2937"/>
<path d="M237.781 138.359H210.532C209.214 138.359 208.147 137.292 208.147 135.974C208.147 134.657 209.214 133.59 210.532 133.59H237.781C239.099 133.59 240.166 134.657 240.166 135.974C240.166 137.292 239.099 138.359 237.781 138.359Z" fill="#064E3B"/>
<path d="M152.915 220.001H102.608C99.7622 220.001 97.4555 217.694 97.4555 214.848V164.541C97.4555 161.695 99.7622 159.389 102.608 159.389H152.915C155.761 159.389 158.068 161.695 158.068 164.541V214.848C158.068 217.693 155.761 220.001 152.915 220.001Z" fill="#064E3B"/>
<path d="M143.108 206.413C142.616 206.413 142.126 206.225 141.751 205.85L135.369 199.468C129.457 204.548 120.503 204.293 114.902 198.689C109.029 192.816 109.029 183.258 114.902 177.382C120.776 171.505 130.334 171.505 136.209 177.382C141.433 182.608 142.01 190.746 137.943 196.614L144.465 203.138C145.214 203.887 145.214 205.101 144.465 205.85C144.089 206.225 143.599 206.413 143.108 206.413ZM125.555 179.223C123.297 179.223 121.039 180.082 119.32 181.8C115.882 185.239 115.882 190.834 119.32 194.271C120.986 195.937 123.199 196.854 125.555 196.854C127.912 196.854 130.125 195.937 131.791 194.271C131.854 194.208 131.915 194.144 131.976 194.081C132.036 193.984 132.107 193.894 132.191 193.81C132.232 193.771 132.274 193.732 132.317 193.699C135.219 190.237 135.044 185.053 131.792 181.8C130.071 180.082 127.813 179.223 125.555 179.223Z" fill="#1E3A8A"/>
<rect x="220.544" y="46.1016" width="5" height="19" fill="#DBEAFE"/>
<rect x="229.544" y="36.1016" width="5" height="29" fill="#DBEAFE"/>
<rect x="238.544" y="41.1016" width="5" height="24" fill="#DBEAFE"/>
<rect x="247.544" y="42.1016" width="5" height="23" fill="#DBEAFE"/>
<path d="M102.937 81.4967V191.007C102.937 193.665 100.782 195.82 98.1247 195.82H5.3571C2.69965 195.82 0.544495 193.665 0.544495 191.007V56.4454C0.544495 53.788 2.69965 51.6328 5.3571 51.6328H73.0747L102.937 81.4967Z" fill="#2563EB"/>
<path d="M102.938 81.4967H77.8863C75.2289 81.4967 73.0737 79.3415 73.0737 76.6841V51.6328L102.938 81.4967Z" fill="#064E3B"/>
<path d="M51.5066 71.9246H13.712C12.5249 71.9246 11.5632 70.963 11.5632 69.7759C11.5632 68.5888 12.5249 67.627 13.712 67.627H51.5066C52.6937 67.627 53.6555 68.5888 53.6555 69.7759C53.6555 70.963 52.6937 71.9246 51.5066 71.9246Z" fill="#1F2937"/>
<path d="M32.7686 81.4969H13.712C12.5249 81.4969 11.5632 80.5351 11.5632 79.348C11.5632 78.1609 12.5249 77.1992 13.712 77.1992H32.7686C33.9557 77.1992 34.9174 78.1609 34.9174 79.348C34.9162 80.5351 33.9544 81.4969 32.7686 81.4969Z" fill="#1F2937"/>
<path d="M36.7379 160.743V178.244C36.7379 179.432 35.7761 180.393 34.589 180.393H27.5016C26.3145 180.393 25.3528 179.432 25.3528 178.244V160.743C25.3528 159.556 26.3145 158.594 27.5016 158.594H34.589C35.7761 158.594 36.7379 159.556 36.7379 160.743Z" fill="#064E3B"/>
<path d="M57.4334 143.041V178.244C57.4334 179.431 56.4716 180.393 55.2845 180.393H48.1971C47.01 180.393 46.0483 179.431 46.0483 178.244V143.041C46.0483 141.854 47.01 140.893 48.1971 140.893H55.2845C56.4716 140.894 57.4334 141.856 57.4334 143.041Z" fill="#064E3B"/>
<path d="M78.1276 128.352V178.245C78.1276 179.432 77.1659 180.394 75.9788 180.394H68.8914C67.7043 180.394 66.7426 179.432 66.7426 178.245V128.352C66.7426 127.165 67.7043 126.203 68.8914 126.203H75.9788C77.1659 126.203 78.1276 127.165 78.1276 128.352Z" fill="#064E3B"/>
<path d="M287.701 171.982C287.109 177.086 284.997 181.893 281.638 185.78C278.279 189.668 273.829 192.455 268.866 193.781C263.903 195.107 258.655 194.909 253.805 193.215C248.956 191.52 244.727 188.406 241.67 184.278C238.612 180.149 236.867 175.197 236.66 170.064C236.453 164.93 237.794 159.854 240.51 155.493C243.225 151.131 247.189 147.688 251.887 145.608C256.585 143.529 261.799 142.91 266.853 143.832C267.075 143.875 267.286 143.963 267.473 144.09C267.66 144.218 267.819 144.382 267.94 144.573C268.061 144.765 268.141 144.979 268.176 145.202C268.211 145.426 268.2 145.654 268.143 145.873L267.639 147.841L263.117 165.497C263.045 165.778 263.048 166.074 263.126 166.354C263.204 166.633 263.355 166.888 263.563 167.091C263.77 167.294 264.028 167.44 264.309 167.512C264.591 167.584 264.886 167.581 265.166 167.503L282.717 162.596L285.117 161.926C285.33 161.866 285.554 161.85 285.774 161.878C285.995 161.906 286.207 161.978 286.399 162.089C286.591 162.201 286.758 162.35 286.891 162.528C287.024 162.706 287.12 162.908 287.173 163.124C287.865 166.024 288.043 169.022 287.701 171.982Z" fill="#1F2937"/>
<path d="M288.306 153.787C288.389 154.002 288.426 154.232 288.414 154.463C288.403 154.693 288.343 154.919 288.239 155.125C288.134 155.33 287.988 155.512 287.809 155.658C287.631 155.804 287.423 155.91 287.2 155.971L285.548 156.433L271.255 160.427C270.975 160.505 270.68 160.508 270.398 160.436C270.117 160.363 269.859 160.218 269.652 160.015C269.444 159.811 269.294 159.557 269.215 159.277C269.137 158.997 269.134 158.702 269.206 158.42L272.9 144.047L273.254 142.668C273.31 142.449 273.41 142.243 273.549 142.064C273.687 141.886 273.861 141.738 274.06 141.629C274.258 141.521 274.477 141.454 274.702 141.434C274.927 141.414 275.154 141.441 275.369 141.512C278.276 142.516 280.936 144.131 283.167 146.248C285.399 148.365 287.151 150.936 288.306 153.787Z" fill="#1F2937"/>
</svg>
