<svg width="25" height="24" viewBox="0 0 25 24" fill="none" xmlns="http://www.w3.org/2000/svg">
<rect x="1" y="14" width="8" height="9" rx="1" fill="#1F2937"/>
<rect x="15" y="14" width="9" height="9" rx="1" fill="#1F2937"/>
<path d="M9.84619 18.4619H14.7693" stroke="#FEE2E2" stroke-linecap="round" stroke-linejoin="round"/>
<mask id="path-4-inside-1_205_3246" fill="white">
<path d="M0 18.4615V6.15385C0 1.23077 1.23077 0 6.15385 0"/>
</mask>
<path d="M-1 18.4615C-1 19.0138 -0.552285 19.4615 0 19.4615C0.552285 19.4615 1 19.0138 1 18.4615H-1ZM6.15385 1C6.70613 1 7.15385 0.552285 7.15385 0C7.15385 -0.552285 6.70613 -1 6.15385 -1V1ZM1 18.4615V6.15385H-1V18.4615H1ZM1 6.15385C1 3.68516 1.33281 2.54295 1.93788 1.93788C2.54295 1.33281 3.68516 1 6.15385 1V-1C3.69945 -1 1.76475 -0.717422 0.523663 0.523663C-0.717422 1.76475 -1 3.69945 -1 6.15385H1Z" fill="#FEE2E2" mask="url(#path-4-inside-1_205_3246)"/>
<mask id="path-6-inside-2_205_3246" fill="white">
<path d="M24.6153 18.4615V6.15385C24.6153 1.23077 23.3845 0 18.4614 0"/>
</mask>
<path d="M23.6153 18.4615C23.6153 19.0138 24.063 19.4615 24.6153 19.4615C25.1676 19.4615 25.6153 19.0138 25.6153 18.4615H23.6153ZM18.4614 -1C17.9091 -1 17.4614 -0.552285 17.4614 0C17.4614 0.552285 17.9091 1 18.4614 1V-1ZM25.6153 18.4615V6.15385H23.6153V18.4615H25.6153ZM25.6153 6.15385C25.6153 3.69945 25.3327 1.76475 24.0916 0.523663C22.8505 -0.717422 20.9158 -1 18.4614 -1V1C20.9301 1 22.0723 1.33281 22.6774 1.93788C23.2825 2.54295 23.6153 3.68516 23.6153 6.15385H25.6153Z" fill="#FEE2E2" mask="url(#path-6-inside-2_205_3246)"/>
<path d="M9.34615 16.5047V20.554C9.34615 21.7354 9.1068 22.4324 8.6926 22.8466C8.2784 23.2608 7.58145 23.5001 6.4 23.5001H3.44615C2.2647 23.5001 1.56775 23.2608 1.15355 22.8466C0.739353 22.4324 0.5 21.7354 0.5 20.554V16.5047C0.5 15.3233 0.739353 14.6263 1.15355 14.2121C1.56775 13.7979 2.2647 13.5586 3.44615 13.5586H6.4C7.58145 13.5586 8.2784 13.7979 8.6926 14.2121C9.1068 14.6263 9.34615 15.3233 9.34615 16.5047Z" stroke="#FEE2E2" stroke-linecap="round" stroke-linejoin="round"/>
<path d="M24.1154 16.5047V20.554C24.1154 21.7354 23.8761 22.4324 23.4619 22.8466C23.0477 23.2608 22.3507 23.5001 21.1693 23.5001H18.2154C17.034 23.5001 16.337 23.2608 15.9228 22.8466C15.5086 22.4324 15.2693 21.7354 15.2693 20.554V16.5047C15.2693 15.3233 15.5086 14.6263 15.9228 14.2121C16.337 13.7979 17.034 13.5586 18.2154 13.5586H21.1693C22.3507 13.5586 23.0477 13.7979 23.4619 14.2121C23.8761 14.6263 24.1154 15.3233 24.1154 16.5047Z" stroke="#FEE2E2" stroke-linecap="round" stroke-linejoin="round"/>
</svg>
