<svg width="23" height="24" viewBox="0 0 23 24" fill="none" xmlns="http://www.w3.org/2000/svg">
<path d="M16.5 16.5L11.5 10.5L6 17L8.5 19.5L9.5 20.5H13.5L14 19.5L16.5 16.5Z" fill="#1F2937"/>
<path d="M8.77626 22.3447L8.7767 22.3427L9.16845 20.6133H13.6379L14.0291 22.3403C14.1003 22.671 14.0122 22.9449 13.8308 23.1415C13.644 23.3441 13.323 23.5 12.8783 23.5H9.92808C9.11177 23.5 8.65564 22.8673 8.77626 22.3447Z" stroke="#FEE2E2" stroke-linecap="round" stroke-linejoin="round"/>
<mask id="path-3-inside-1_205_2124" fill="white">
<path d="M14.0372 20.1017L16.0626 18.2987C17.1982 17.2919 17.245 16.5894 16.3435 15.4538L12.7728 10.9231C12.0235 9.97484 10.7943 9.97484 10.045 10.9231L6.47426 15.4538C5.57279 16.5894 5.57278 17.327 6.75522 18.2987L8.7806 20.1017"/>
</mask>
<path d="M13.3723 19.3548C12.9597 19.722 12.923 20.3541 13.2902 20.7666C13.6575 21.1791 14.2896 21.2158 14.7021 20.8486L13.3723 19.3548ZM16.0626 18.2987L15.3991 17.5505L15.3976 17.5518L16.0626 18.2987ZM16.3435 15.4538L15.5581 16.0728L15.5603 16.0755L16.3435 15.4538ZM12.7728 10.9231L13.5582 10.3041L13.5574 10.3032L12.7728 10.9231ZM10.045 10.9231L9.26035 10.3032L9.25959 10.3041L10.045 10.9231ZM6.47426 15.4538L7.25749 16.0755L7.25965 16.0728L6.47426 15.4538ZM6.75522 18.2987L7.42013 17.5518C7.41029 17.5431 7.40029 17.5345 7.39012 17.5261L6.75522 18.2987ZM8.11569 20.8486C8.52821 21.2158 9.16031 21.1791 9.52752 20.7666C9.89474 20.3541 9.85802 19.722 9.4455 19.3548L8.11569 20.8486ZM14.7021 20.8486L16.7275 19.0457L15.3976 17.5518L13.3723 19.3548L14.7021 20.8486ZM16.726 19.047C17.3376 18.5047 17.8851 17.8568 17.9627 17.0166C18.0408 16.1713 17.6149 15.447 17.1267 14.8321L15.5603 16.0755C15.9736 16.5962 15.975 16.7909 15.9712 16.8325C15.9669 16.8791 15.9231 17.0859 15.3991 17.5505L16.726 19.047ZM17.1289 14.8348L13.5582 10.3041L11.9874 11.5421L15.5581 16.0728L17.1289 14.8348ZM13.5574 10.3032C13.0126 9.61364 12.2395 9.21191 11.4089 9.21191C10.5783 9.21191 9.80517 9.61364 9.26036 10.3032L10.8296 11.5431C11.0341 11.2843 11.2502 11.2119 11.4089 11.2119C11.5675 11.2119 11.7837 11.2843 11.9881 11.5431L13.5574 10.3032ZM9.25959 10.3041L5.68886 14.8348L7.25965 16.0728L10.8304 11.5421L9.25959 10.3041ZM5.69103 14.8321C5.20763 15.441 4.77 16.17 4.83633 17.0159C4.90413 17.8804 5.46792 18.5352 6.12032 19.0713L7.39012 17.5261C6.86008 17.0906 6.83266 16.8907 6.83021 16.8595C6.82631 16.8098 6.83942 16.6022 7.25748 16.0755L5.69103 14.8321ZM6.09031 19.0457L8.11569 20.8486L9.4455 19.3548L7.42013 17.5518L6.09031 19.0457Z" fill="#FEE2E2" mask="url(#path-3-inside-1_205_2124)"/>
<path d="M11.4031 10.6777V13.6397" stroke="#FEE2E2" stroke-linecap="round" stroke-linejoin="round"/>
<path d="M11.9999 3.0122H10.8292C10.4614 3.0122 10.1584 2.70922 10.1584 2.34146V1.17073C10.1584 0.802972 10.4614 0.5 10.8292 0.5H11.9999C12.3677 0.5 12.6706 0.802972 12.6706 1.17073V2.34146C12.6706 2.70922 12.3677 3.0122 11.9999 3.0122Z" stroke="#FEE2E2" stroke-linecap="round" stroke-linejoin="round"/>
<path d="M2.34146 13.7476H1.17073C0.802972 13.7476 0.5 13.4446 0.5 13.0769V11.9062C0.5 11.5384 0.803011 11.2354 1.17073 11.2354H2.34146C2.70918 11.2354 3.0122 11.5384 3.0122 11.9062V13.0769C3.0122 13.4446 2.70922 13.7476 2.34146 13.7476Z" stroke="#FEE2E2" stroke-linecap="round" stroke-linejoin="round"/>
<path d="M21.6115 13.7476H20.4408C20.073 13.7476 19.77 13.4446 19.77 13.0769V11.9062C19.77 11.5384 20.073 11.2354 20.4408 11.2354H21.6115C21.9792 11.2354 22.2822 11.5384 22.2822 11.9062V13.0769C22.2822 13.4446 21.9792 13.7476 21.6115 13.7476Z" stroke="#FEE2E2" stroke-linecap="round" stroke-linejoin="round"/>
<path d="M9.65853 1.82617C5.19804 2.353 1.73267 6.13445 1.73267 10.7354" stroke="#FEE2E2" stroke-linecap="round" stroke-linejoin="round"/>
<path d="M21.0497 10.7354C21.0497 6.14615 17.6077 2.37642 13.1707 1.82617" stroke="#FEE2E2" stroke-linecap="round" stroke-linejoin="round"/>
</svg>
