<svg width="18" height="24" viewBox="0 0 18 24" fill="none" xmlns="http://www.w3.org/2000/svg">
<g opacity="0.75">
<circle cx="8.84208" cy="8.84208" r="8.84208" fill="#FEE2E2"/>
<path d="M7.57891 15.1583V9.78988C7.57891 8.91785 6.87199 8.21094 5.99996 8.21094V8.21094C5.12794 8.21094 4.42102 8.91785 4.42102 9.78988V9.78988C4.42102 10.6619 5.12794 11.3688 5.99996 11.3688H11.6842C12.5562 11.3688 13.2631 10.6619 13.2631 9.78988V9.78988C13.2631 8.91785 12.5562 8.21094 11.6842 8.21094V8.21094C10.8121 8.21094 10.1052 8.91785 10.1052 9.78988V15.1583" stroke="#1F2937" stroke-linecap="round"/>
<path opacity="0.75" fill-rule="evenodd" clip-rule="evenodd" d="M12.6315 18.3333C12.6315 18.2232 12.5166 18.1504 12.4158 18.1949C11.323 18.6784 10.1139 18.9469 8.84208 18.9469C7.57024 18.9469 6.36112 18.6784 5.26832 18.1949C5.16756 18.1504 5.05261 18.2232 5.05261 18.3333V21.4995C5.05261 22.8803 6.1719 23.9995 7.55261 23.9995H10.1315C11.5123 23.9995 12.6315 22.8802 12.6315 21.4995V18.3333Z" fill="#FEE2E2"/>
</g>
</svg>
