<svg width="40" height="42" viewBox="0 0 40 42" fill="none" xmlns="http://www.w3.org/2000/svg">
<g id="code">
<path id="Rectangle 739" d="M4.42978 40.9997H32.2919C33.113 40.9997 33.9004 40.6735 34.481 40.093C35.0616 39.5124 35.3877 38.725 35.3877 37.9039V17.7812H1.33398V37.9039C1.33398 38.725 1.66015 39.5124 2.24072 40.093C2.8213 40.6735 3.60872 40.9997 4.42978 40.9997Z" fill="#1E3A8A"/>
<path id="Rectangle 740" d="M32.2919 10.042H4.42978C3.60872 10.042 2.8213 10.3682 2.24072 10.9487C1.66015 11.5293 1.33398 12.3167 1.33398 13.1378V17.7815H35.3877V13.1378C35.3877 12.3167 35.0616 11.5293 34.481 10.9487C33.9004 10.3682 33.113 10.042 32.2919 10.042Z" fill="#1F2937"/>
<path id="Vector" d="M12.3953 10.042H4.42978C3.60872 10.042 2.8213 10.3682 2.24072 10.9487C1.66015 11.5293 1.33398 12.3167 1.33398 13.1378V37.9041C1.33398 38.7252 1.66015 39.5126 2.24072 40.0932C2.8213 40.6738 3.60872 40.9999 4.42978 40.9999H32.2919C33.113 40.9999 33.9004 40.6738 34.481 40.0932C35.0616 39.5126 35.3877 38.7252 35.3877 37.9041V25.521" stroke="#DBEAFE" stroke-width="1.71429" stroke-linecap="round" stroke-linejoin="round"/>
<path id="Vector_2" d="M1.33398 17.7812H17.5869" stroke="#DBEAFE" stroke-width="1.71429" stroke-linecap="round" stroke-linejoin="round"/>
<path id="Vector_3" d="M9.07346 33.26L13.7171 28.6163L9.07346 23.9727" stroke="#DBEAFE" stroke-width="1.71429" stroke-linecap="round" stroke-linejoin="round"/>
<path id="Vector_4" d="M18.3608 33.2607H23.0045" stroke="#DBEAFE" stroke-width="1.71429" stroke-linecap="round" stroke-linejoin="round"/>
<path id="Vector 2136" d="M19.562 11.6302C18.4785 11.4445 18.4785 9.88107 19.562 9.69223C21.4866 9.35793 23.2679 8.45796 24.6789 7.1071C26.0899 5.75624 27.0665 4.01572 27.4842 2.10754L27.5461 1.81034C27.7845 0.736099 29.3107 0.726811 29.5584 1.80105L29.6358 2.14778C30.069 4.0479 31.0542 5.77756 32.4676 7.11935C33.881 8.46115 35.6595 9.3552 37.5796 9.68914C38.6693 9.87798 38.6693 11.4445 37.5796 11.6364C35.6599 11.9701 33.8817 12.8637 32.4683 14.2049C31.055 15.5461 30.0695 17.2751 29.6358 19.1746L29.5553 19.5245C29.3107 20.5956 27.7845 20.5894 27.5492 19.5152L27.4842 19.2149C27.0665 17.3067 26.0899 15.5662 24.6789 14.2153C23.2679 12.8645 21.4866 11.9645 19.562 11.6302Z" fill="white"/>
<path id="Vector 2137" d="M19.562 11.6302C18.4785 11.4445 18.4785 9.88107 19.562 9.69223C21.4866 9.35793 23.2679 8.45796 24.6789 7.1071C26.0899 5.75624 27.0665 4.01572 27.4842 2.10754L27.5461 1.81034C27.7845 0.736099 29.3107 0.726811 29.5584 1.80105L29.6358 2.14778C30.069 4.0479 31.0542 5.77756 32.4676 7.11935C33.881 8.46115 35.6595 9.3552 37.5796 9.68914C38.6693 9.87798 38.6693 11.4445 37.5796 11.6364C35.6599 11.9701 33.8817 12.8637 32.4683 14.2049C31.055 15.5461 30.0695 17.2751 29.6358 19.1746L29.5553 19.5245C29.3107 20.5956 27.7845 20.5894 27.5492 19.5152L27.4842 19.2149C27.0665 17.3067 26.0899 15.5662 24.6789 14.2153C23.2679 12.8645 21.4866 11.9645 19.562 11.6302Z" stroke="#DBEAFE" stroke-width="1.71429" stroke-linecap="round" stroke-linejoin="round"/>
</g>
</svg>
