<svg width="49" height="34" viewBox="0 0 49 34" fill="none" xmlns="http://www.w3.org/2000/svg">
<g id="Content">
<path id="Vector" d="M45.1335 5.44444L35.1069 9.88889V4.55556C35.1069 3.61256 34.7323 2.70819 34.0655 2.0414C33.3987 1.3746 32.4943 1 31.5513 1H4.88466C3.94167 1 3.0373 1.3746 2.3705 2.0414C1.7037 2.70819 1.3291 3.61256 1.3291 4.55556V29.4444C1.3291 30.3874 1.7037 31.2918 2.3705 31.9586C3.0373 32.6254 3.94167 33 4.88466 33H31.5513C32.4943 33 33.3987 32.6254 34.0655 31.9586C34.7323 31.2918 35.1069 30.3874 35.1069 29.4444V24.1111L45.1335 28.5556C45.4039 28.6599 45.6956 28.6965 45.9833 28.6624C46.271 28.6282 46.546 28.5242 46.7844 28.3594C47.0228 28.1947 47.2172 27.9742 47.3509 27.7171C47.4846 27.46 47.5534 27.1742 47.5513 26.8844V7.11555C47.5534 6.82581 47.4846 6.53996 47.3509 6.28289C47.2172 6.02581 47.0228 5.80531 46.7844 5.64056C46.546 5.47582 46.271 5.37183 45.9833 5.33765C45.6956 5.30346 45.4039 5.34013 45.1335 5.44444Z" fill="#1E3A8A"/>
<path id="Vector_2" d="M45.1335 5.44444L35.1069 9.88889V4.55556C35.1069 3.61256 34.7323 2.70819 34.0655 2.0414C33.3987 1.3746 32.4943 1 31.5513 1H4.88466C3.94167 1 3.0373 1.3746 2.3705 2.0414C1.7037 2.70819 1.3291 3.61256 1.3291 4.55556V29.4444C1.3291 30.3874 1.7037 31.2918 2.3705 31.9586C3.0373 32.6254 3.94167 33 4.88466 33H31.5513C32.4943 33 33.3987 32.6254 34.0655 31.9586C34.7323 31.2918 35.1069 30.3874 35.1069 29.4444V24.1111L45.1335 28.5556C45.4039 28.6599 45.6956 28.6965 45.9833 28.6624C46.271 28.6282 46.546 28.5242 46.7844 28.3594C47.0228 28.1947 47.2172 27.9742 47.3509 27.7171C47.4846 27.46 47.5534 27.1742 47.5513 26.8844V7.11555C47.5534 6.82581 47.4846 6.53996 47.3509 6.28289C47.2172 6.02581 47.0228 5.80531 46.7844 5.64056C46.546 5.47582 46.271 5.37183 45.9833 5.33764C45.6956 5.30346 45.4039 5.34013 45.1335 5.44444Z" stroke="#DBEAFE" stroke-width="1.71429" stroke-linecap="round" stroke-linejoin="round"/>
</g>
</svg>
