<svg width="133" height="74" viewBox="0 0 133 74" fill="none" xmlns="http://www.w3.org/2000/svg">
<path d="M96.0293 73.4258H11.0442C8.65285 73.4258 6.71445 71.0466 6.71445 68.1115V11.6989C6.71445 8.76383 8.65285 6.38477 11.0442 6.38477H96.0293C98.4207 6.38477 100.359 8.76383 100.359 11.6989V68.1115C100.359 71.0466 98.4207 73.4258 96.0293 73.4258Z" fill="#374151"/>
<path d="M14.3812 29.8491C14.3812 28.8861 15.1618 28.105 16.1253 28.105C9.33836 28.105 3.81675 22.5834 3.81675 15.7964C3.81675 9.0094 9.33836 3.48781 16.1253 3.48781C22.9123 3.48781 28.4339 9.0094 28.4339 15.7964C28.4339 14.8334 29.2145 14.0522 30.1781 14.0522C31.1416 14.0522 31.9222 14.8328 31.9222 15.7964C31.9222 7.08615 24.8361 0 16.1259 0C7.41566 0 0.32959 7.0867 0.32959 15.7964C0.32959 24.5066 7.41566 31.5926 16.1259 31.5926C15.1618 31.5932 14.3812 30.8121 14.3812 29.8491Z" fill="#F3F4F6"/>
<path d="M30.1778 14.0527C29.2148 14.0527 28.4336 14.8334 28.4336 15.7969C28.4336 22.5839 22.912 28.1055 16.1251 28.1055C15.1621 28.1055 14.3809 28.8861 14.3809 29.8497C14.3809 30.8132 15.1615 31.5937 16.1251 31.5937C24.8353 31.5937 31.9213 24.5077 31.9213 15.7974C31.9219 14.8334 31.1413 14.0527 30.1778 14.0527Z" fill="#6EE7B7"/>
<path d="M87.8171 27.0703H49.8546C49.2302 27.0703 48.7243 26.5644 48.7243 25.9399C48.7243 25.3155 49.2302 24.8096 49.8546 24.8096H87.8171C88.4415 24.8096 88.9474 25.3155 88.9474 25.9399C88.9474 26.5637 88.4415 27.0703 87.8171 27.0703Z" fill="#F3F4F6"/>
<path d="M69.9105 33.2342H49.8546C49.2302 33.2342 48.7243 32.7284 48.7243 32.104C48.7243 31.4796 49.2302 30.9736 49.8546 30.9736H69.9105C70.535 30.9736 71.0409 31.4796 71.0409 32.104C71.0409 32.7284 70.535 33.2342 69.9105 33.2342Z" fill="#F3F4F6"/>
<path d="M62.7716 39.5058H49.8545C49.2301 39.5058 48.7242 38.9999 48.7242 38.3755C48.7242 37.751 49.2301 37.2451 49.8545 37.2451H62.7716C63.396 37.2451 63.9019 37.751 63.9019 38.3755C63.9019 38.9999 63.396 39.5058 62.7716 39.5058Z" fill="#6EE7B7"/>
<path d="M100.568 60.2842L132.33 60.2842L132.33 17.0267L100.568 17.0267L100.568 60.2842Z" fill="#059669"/>
<path d="M125.962 51.2225C124.488 51.2225 123.293 52.4173 123.293 53.891C123.293 55.3648 124.488 56.5596 125.962 56.5596C127.436 56.5596 128.63 55.3648 128.63 53.891C128.63 52.4173 127.436 51.2225 125.962 51.2225Z" fill="#6EE7B7"/>
<path d="M125.962 21.5536C124.488 21.5536 123.293 22.7483 123.293 24.2221C123.293 25.6959 124.488 26.8906 125.962 26.8906C127.436 26.8906 128.63 25.6959 128.63 24.2221C128.63 22.7483 127.436 21.5536 125.962 21.5536Z" fill="#6EE7B7"/>
<path d="M126.756 30.2384L126.756 47.414C122.847 47.414 119.678 50.1614 119.678 53.5517L119.678 54.0156L100.574 54.0156L100.574 24.1099L118.799 24.1099C118.799 27.5517 122.065 30.3203 126.037 30.2445L126.756 30.2384Z" fill="#6EE7B7"/>
<path d="M109.305 38.8532C109.305 36.4807 108.362 34.2053 106.684 32.5277C105.007 30.85 102.731 29.9076 100.359 29.9076L100.359 47.7988C101.534 47.7992 102.697 47.5681 103.783 47.1187C104.868 46.6693 105.855 46.0104 106.685 45.1796C107.516 44.3489 108.175 43.3625 108.624 42.277C109.074 41.1915 109.305 40.0281 109.305 38.8532Z" fill="#059669"/>
<g filter="url(#filter0_d_147_1186)">
<rect x="48.216" y="51.0791" width="44.694" height="13.8339" rx="4" fill="#1E40AF"/>
</g>
<path d="M67.0759 61.9882V52.8973H67.6583V61.9882H67.0759ZM69.0361 55.6246C68.9935 55.2647 68.8207 54.9854 68.5177 54.7865C68.2147 54.5876 67.843 54.4882 67.4026 54.4882C67.0807 54.4882 66.7989 54.5403 66.5575 54.6444C66.3183 54.7486 66.1313 54.8918 65.9964 55.0741C65.8638 55.2564 65.7975 55.4636 65.7975 55.6956C65.7975 55.8897 65.8437 56.0566 65.936 56.1963C66.0307 56.3336 66.1514 56.4484 66.2982 56.5407C66.445 56.6307 66.5989 56.7053 66.7599 56.7645C66.9209 56.8213 67.0688 56.8675 67.2038 56.903L67.9424 57.1018C68.1318 57.1515 68.3425 57.2202 68.5745 57.3078C68.8089 57.3954 69.0326 57.5149 69.2457 57.6665C69.4611 57.8156 69.6387 58.0074 69.7783 58.2417C69.918 58.4761 69.9879 58.7638 69.9879 59.1047C69.9879 59.4977 69.8849 59.8528 69.6789 60.17C69.4753 60.4872 69.177 60.7394 68.784 60.9264C68.3934 61.1134 67.9187 61.2069 67.36 61.2069C66.8392 61.2069 66.3882 61.1229 66.007 60.9548C65.6282 60.7867 65.3299 60.5523 65.1121 60.2517C64.8967 59.951 64.7748 59.6018 64.7464 59.2041H65.6555C65.6791 59.4787 65.7715 59.706 65.9325 59.8859C66.0958 60.0635 66.3018 60.1961 66.5504 60.2836C66.8013 60.3689 67.0712 60.4115 67.36 60.4115C67.6962 60.4115 67.998 60.357 68.2656 60.2481C68.5331 60.1369 68.745 59.983 68.9012 59.7865C69.0575 59.5876 69.1356 59.3556 69.1356 59.0905C69.1356 58.849 69.0681 58.6525 68.9332 58.501C68.7982 58.3495 68.6207 58.2264 68.4005 58.1317C68.1803 58.037 67.9424 57.9541 67.6867 57.8831L66.7918 57.6274C66.2236 57.464 65.7738 57.2309 65.4424 56.9278C65.111 56.6248 64.9452 56.2282 64.9452 55.7382C64.9452 55.331 65.0553 54.9759 65.2755 54.6729C65.498 54.3675 65.7963 54.1307 66.1704 53.9626C66.5468 53.7922 66.967 53.7069 67.431 53.7069C67.8998 53.7069 68.3164 53.791 68.681 53.9591C69.0456 54.1248 69.3344 54.3521 69.5475 54.6409C69.7629 54.9297 69.8766 55.2576 69.8884 55.6246H69.0361ZM73.4529 61.9882V52.8973H74.0353V61.9882H73.4529ZM75.4131 55.6246C75.3705 55.2647 75.1977 54.9854 74.8946 54.7865C74.5916 54.5876 74.2199 54.4882 73.7796 54.4882C73.4576 54.4882 73.1759 54.5403 72.9344 54.6444C72.6953 54.7486 72.5083 54.8918 72.3733 55.0741C72.2408 55.2564 72.1745 55.4636 72.1745 55.6956C72.1745 55.8897 72.2206 56.0566 72.313 56.1963C72.4077 56.3336 72.5284 56.4484 72.6752 56.5407C72.822 56.6307 72.9758 56.7053 73.1368 56.7645C73.2978 56.8213 73.4458 56.8675 73.5807 56.903L74.3193 57.1018C74.5087 57.1515 74.7194 57.2202 74.9515 57.3078C75.1858 57.3954 75.4095 57.5149 75.6226 57.6665C75.8381 57.8156 76.0156 58.0074 76.1553 58.2417C76.295 58.4761 76.3648 58.7638 76.3648 59.1047C76.3648 59.4977 76.2618 59.8528 76.0559 60.17C75.8523 60.4872 75.554 60.7394 75.161 60.9264C74.7703 61.1134 74.2957 61.2069 73.737 61.2069C73.2161 61.2069 72.7651 61.1229 72.384 60.9548C72.0052 60.7867 71.7069 60.5523 71.4891 60.2517C71.2737 59.951 71.1517 59.6018 71.1233 59.2041H72.0324C72.0561 59.4787 72.1484 59.706 72.3094 59.8859C72.4728 60.0635 72.6787 60.1961 72.9273 60.2836C73.1783 60.3689 73.4481 60.4115 73.737 60.4115C74.0731 60.4115 74.375 60.357 74.6425 60.2481C74.91 60.1369 75.1219 59.983 75.2782 59.7865C75.4344 59.5876 75.5125 59.3556 75.5125 59.0905C75.5125 58.849 75.4451 58.6525 75.3101 58.501C75.1752 58.3495 74.9976 58.2264 74.7774 58.1317C74.5573 58.037 74.3193 57.9541 74.0637 57.8831L73.1688 57.6274C72.6006 57.464 72.1508 57.2309 71.8193 56.9278C71.4879 56.6248 71.3222 56.2282 71.3222 55.7382C71.3222 55.331 71.4323 54.9759 71.6524 54.6729C71.875 54.3675 72.1733 54.1307 72.5473 53.9626C72.9238 53.7922 73.344 53.7069 73.808 53.7069C74.2767 53.7069 74.6934 53.791 75.058 53.9591C75.4226 54.1248 75.7114 54.3521 75.9245 54.6409C76.1399 54.9297 76.2535 55.2576 76.2654 55.6246H75.4131Z" fill="#93C5FD"/>
<path d="M36.2433 37.2451C35.5286 37.2445 34.8313 37.4594 34.2472 37.8604C33.663 38.2615 33.2208 38.8289 32.9811 39.4847C32.7415 40.1405 32.7163 40.8525 32.909 41.5228C33.1017 42.1931 33.5028 42.7888 34.0573 43.228L26.1876 56.977C26.1318 56.9685 26.0755 56.963 26.019 56.9605C25.8745 56.9626 25.731 56.9843 25.5927 57.0251L19.6959 49.8925C19.9568 49.5383 20.1036 49.1165 20.1177 48.6807C20.1318 48.245 20.0125 47.815 19.7749 47.4455C19.5374 47.076 19.1923 46.7837 18.7837 46.6057C18.3751 46.4278 17.9214 46.3723 17.4803 46.4462C17.0392 46.5202 16.6306 46.7203 16.3066 47.021C15.9826 47.3218 15.7578 47.7097 15.6608 48.1353C15.5637 48.5609 15.5989 49.005 15.7617 49.411C15.9246 49.8171 16.2077 50.1668 16.5752 50.4157L12.4453 61.8653C12.0841 61.8859 11.7413 62.0278 11.4752 62.2667C11.2092 62.5057 11.0364 62.827 10.9862 63.1761C10.9359 63.5252 11.0114 63.8804 11.1997 64.1814C11.3881 64.4824 11.6776 64.7106 12.0192 64.8271C12.3607 64.9436 12.7331 64.9413 13.0731 64.8206C13.4131 64.6998 13.6997 64.4681 13.884 64.1648C14.0684 63.8615 14.1392 63.5053 14.0844 63.1569C14.0296 62.8085 13.8526 62.4893 13.5835 62.2536L17.7146 50.804C17.7652 50.804 17.8146 50.811 17.8652 50.811C18.1729 50.8112 18.4774 50.7501 18.76 50.6316L24.652 57.7629C24.5236 57.9932 24.4589 58.252 24.4644 58.514C24.4699 58.7759 24.5453 59.032 24.6833 59.2569C24.8212 59.4819 25.0169 59.6679 25.2512 59.7968C25.4854 59.9257 25.75 59.9929 26.019 59.9919C26.3113 59.9933 26.5981 59.9143 26.8462 59.764C27.0944 59.6136 27.294 59.398 27.4219 59.142C27.5497 58.886 27.6008 58.6001 27.5691 58.317C27.5374 58.034 27.4242 57.7655 27.2427 57.5424L35.1123 43.7982C35.5875 43.9584 36.0928 44.0157 36.593 43.9663C37.0933 43.9168 37.5765 43.7618 38.0089 43.5119C38.4413 43.2619 38.8126 42.9232 39.0969 42.5193C39.3812 42.1153 39.5717 41.6558 39.655 41.1728C39.7384 40.6899 39.7126 40.195 39.5795 39.7227C39.4465 39.2504 39.2093 38.812 38.8845 38.4381C38.5597 38.0642 38.1552 37.7638 37.699 37.5578C37.2429 37.3517 36.7461 37.245 36.2433 37.2451Z" fill="#6EE7B7"/>
<defs>
<filter id="filter0_d_147_1186" x="48.216" y="51.0791" width="45.694" height="14.834" filterUnits="userSpaceOnUse" color-interpolation-filters="sRGB">
<feFlood flood-opacity="0" result="BackgroundImageFix"/>
<feColorMatrix in="SourceAlpha" type="matrix" values="0 0 0 0 0 0 0 0 0 0 0 0 0 0 0 0 0 0 127 0" result="hardAlpha"/>
<feOffset dx="1" dy="1"/>
<feComposite in2="hardAlpha" operator="out"/>
<feColorMatrix type="matrix" values="0 0 0 0 0.0666667 0 0 0 0 0.0941176 0 0 0 0 0.152941 0 0 0 1 0"/>
<feBlend mode="normal" in2="BackgroundImageFix" result="effect1_dropShadow_147_1186"/>
<feBlend mode="normal" in="SourceGraphic" in2="effect1_dropShadow_147_1186" result="shape"/>
</filter>
</defs>
</svg>
