<svg width="42" height="42" viewBox="0 0 42 42" fill="none" xmlns="http://www.w3.org/2000/svg">
<g id="Design">
<path id="Subtract" fill-rule="evenodd" clip-rule="evenodd" d="M28.0819 35.5938C28.4372 36.0748 28.6446 36.649 28.6788 37.2461C28.7625 37.905 28.6065 38.5721 28.2394 39.1256C27.8722 39.6791 27.3184 40.0822 26.6788 40.2615C24.9374 40.7564 23.1353 41.005 21.325 40.9999C17.6592 40.9983 14.0643 39.9892 10.9332 38.0828C7.80212 36.1765 5.25517 33.4462 3.57066 30.1904C1.88615 26.9346 1.12887 23.2784 1.38157 19.6213C1.63426 15.9642 2.8872 12.447 5.00351 9.45376C7.11981 6.46055 10.0181 4.10657 13.3816 2.64898C16.7452 1.1914 20.4446 0.686291 24.0758 1.18884C27.707 1.6914 31.1302 3.18228 33.9714 5.4986C36.8127 7.81492 38.9627 10.8676 40.1865 14.3231C40.5178 15.2529 40.6205 16.2488 40.4858 17.2267C40.3512 18.2046 39.9832 19.1357 39.4129 19.9414C38.8425 20.7471 38.0867 21.4037 37.2092 21.8557C36.3316 22.3077 35.3582 22.5419 34.3711 22.5384H28.6173C27.1523 22.5344 25.734 23.053 24.6173 24.0012C23.5006 24.9493 22.7588 26.2647 22.5252 27.7109C22.2916 29.157 22.5815 30.6391 23.3429 31.8906C24.1043 33.1421 25.2871 34.081 26.6788 34.5384C27.2391 34.7465 27.7266 35.1132 28.0819 35.5938ZM25.5403 14.8461C26.3564 14.8461 27.139 14.522 27.716 13.9449C28.2931 13.3679 28.6173 12.5853 28.6173 11.7692C28.6173 10.9532 28.2931 10.1705 27.716 9.59351C27.139 9.01647 26.3564 8.6923 25.5403 8.6923C24.7243 8.6923 23.9417 9.01647 23.3646 9.59351C22.7876 10.1705 22.4634 10.9532 22.4634 11.7692C22.4634 12.5853 22.7876 13.3679 23.3646 13.9449C23.9417 14.522 24.7243 14.8461 25.5403 14.8461ZM13.2327 19.4615C14.0487 19.4615 14.8313 19.1373 15.4084 18.5603C15.9854 17.9833 16.3096 17.2006 16.3096 16.3846C16.3096 15.5685 15.9854 14.7859 15.4084 14.2089C14.8313 13.6318 14.0487 13.3077 13.2327 13.3077C12.4166 13.3077 11.634 13.6318 11.057 14.2089C10.4799 14.7859 10.1558 15.5685 10.1558 16.3846C10.1558 17.2006 10.4799 17.9833 11.057 18.5603C11.634 19.1373 12.4166 19.4615 13.2327 19.4615Z" fill="#1E3A8A"/>
<path id="Vector" d="M28.6788 37.2461C28.6445 36.6493 28.4371 36.0753 28.0819 35.5945C27.7267 35.1136 27.2392 34.7466 26.6788 34.5384C25.2871 34.081 24.1043 33.1421 23.3429 31.8906C22.5815 30.6391 22.2916 29.157 22.5252 27.7109C22.7588 26.2647 23.5006 24.9493 24.6173 24.0012C25.734 23.053 27.1523 22.5344 28.6173 22.5384H34.3711C35.358 22.5412 36.331 22.3065 37.2082 21.8543C38.0853 21.4021 38.8408 20.7456 39.411 19.9401C39.9812 19.1346 40.3493 18.2038 40.4842 17.2262C40.6192 16.2486 40.5171 15.2529 40.1865 14.3231C38.9627 10.8676 36.8127 7.81492 33.9714 5.4986C31.1302 3.18228 27.707 1.6914 24.0758 1.18884C20.4446 0.686291 16.7452 1.1914 13.3816 2.64898C10.0181 4.10657 7.11981 6.46055 5.00351 9.45376C2.8872 12.447 1.63426 15.9642 1.38157 19.6213C1.12887 23.2784 1.88615 26.9346 3.57066 30.1904C5.25518 33.4462 7.80212 36.1765 10.9332 38.0828C14.0643 39.9892 17.6592 40.9983 21.325 40.9999C23.1353 41.005 24.9374 40.7564 26.6788 40.2615C27.3184 40.0823 27.8722 39.6791 28.2394 39.1256C28.6065 38.5721 28.7625 37.905 28.6788 37.2461Z" stroke="#DBEAFE" stroke-width="1.71429" stroke-linecap="round" stroke-linejoin="round"/>
<path id="Vector_2" d="M13.2327 30.2302C13.6407 30.2302 14.032 30.0682 14.3205 29.7796C14.609 29.4911 14.7711 29.0998 14.7711 28.6918C14.7711 28.2838 14.609 27.8924 14.3205 27.6039C14.032 27.3154 13.6407 27.1533 13.2327 27.1533C12.8246 27.1533 12.4333 27.3154 12.1448 27.6039C11.8563 27.8924 11.6942 28.2838 11.6942 28.6918C11.6942 29.0998 11.8563 29.4911 12.1448 29.7796C12.4333 30.0682 12.8246 30.2302 13.2327 30.2302Z" stroke="#DBEAFE" stroke-width="1.71429" stroke-linecap="round" stroke-linejoin="round"/>
<path id="Vector_3" d="M25.5403 14.8462C26.3564 14.8462 27.139 14.522 27.716 13.945C28.2931 13.368 28.6172 12.5853 28.6172 11.7693C28.6172 10.9533 28.2931 10.1706 27.716 9.59359C27.139 9.01656 26.3564 8.69238 25.5403 8.69238C24.7243 8.69238 23.9417 9.01656 23.3646 9.59359C22.7876 10.1706 22.4634 10.9533 22.4634 11.7693C22.4634 12.5853 22.7876 13.368 23.3646 13.945C23.9417 14.522 24.7243 14.8462 25.5403 14.8462Z" fill="white"/>
<path id="Vector_4" d="M13.2327 19.4615C14.0487 19.4615 14.8314 19.1373 15.4084 18.5602C15.9854 17.9832 16.3096 17.2006 16.3096 16.3845C16.3096 15.5685 15.9854 14.7859 15.4084 14.2088C14.8314 13.6318 14.0487 13.3076 13.2327 13.3076C12.4166 13.3076 11.634 13.6318 11.057 14.2088C10.4799 14.7859 10.1558 15.5685 10.1558 16.3845C10.1558 17.2006 10.4799 17.9832 11.057 18.5602C11.634 19.1373 12.4166 19.4615 13.2327 19.4615Z" fill="white"/>
<path id="Vector_5" d="M25.5403 14.8462C26.3564 14.8462 27.139 14.522 27.716 13.945C28.2931 13.368 28.6172 12.5853 28.6172 11.7693C28.6172 10.9533 28.2931 10.1706 27.716 9.59359C27.139 9.01656 26.3564 8.69238 25.5403 8.69238C24.7243 8.69238 23.9417 9.01656 23.3646 9.59359C22.7876 10.1706 22.4634 10.9533 22.4634 11.7693C22.4634 12.5853 22.7876 13.368 23.3646 13.945C23.9417 14.522 24.7243 14.8462 25.5403 14.8462Z" stroke="#DBEAFE" stroke-width="1.71429" stroke-linecap="round" stroke-linejoin="round"/>
<path id="Vector_6" d="M13.2327 19.4615C14.0487 19.4615 14.8314 19.1373 15.4084 18.5602C15.9854 17.9832 16.3096 17.2006 16.3096 16.3845C16.3096 15.5685 15.9854 14.7859 15.4084 14.2088C14.8314 13.6318 14.0487 13.3076 13.2327 13.3076C12.4166 13.3076 11.634 13.6318 11.057 14.2088C10.4799 14.7859 10.1558 15.5685 10.1558 16.3845C10.1558 17.2006 10.4799 17.9832 11.057 18.5602C11.634 19.1373 12.4166 19.4615 13.2327 19.4615Z" stroke="#DBEAFE" stroke-width="1.71429" stroke-linecap="round" stroke-linejoin="round"/>
</g>
</svg>
