<svg width="18" height="14" viewBox="0 0 18 14" fill="none" xmlns="http://www.w3.org/2000/svg">
<g id="eye-optic--health-medical-eye-optic">
<path id="Vector 2095" d="M9.00004 3.30273C3.75743 3.30273 1.55634 8.0174 1.55634 8.11522C1.55634 8.21305 3.75743 12.9277 9.00004 12.9277C14.2427 12.9277 16.4437 8.21305 16.4437 8.11522C16.4437 8.0174 14.2427 3.30273 9.00004 3.30273Z" stroke="#F3F4F6" stroke-linecap="round" stroke-linejoin="round"/>
<path id="Vector 2096" d="M2.95141 6.04173L1 4.09033" stroke="#F3F4F6" stroke-linecap="round" stroke-linejoin="round"/>
<path id="Vector 2097" d="M6.66479 3.6451L5.86935 1.07178" stroke="#F3F4F6" stroke-linecap="round" stroke-linejoin="round"/>
<path id="Vector 2099" d="M15.0486 6.04173L16.9999 4.09033" stroke="#F3F4F6" stroke-linecap="round" stroke-linejoin="round"/>
<path id="Vector 2100" d="M11.3354 3.6451L12.1308 1.07178" stroke="#F3F4F6" stroke-linecap="round" stroke-linejoin="round"/>
<path id="Ellipse 902" d="M8.51436 10.2368C9.68583 10.505 10.853 9.77283 11.1212 8.60136C11.3895 7.4299 10.6573 6.26277 9.48581 5.99451C8.31434 5.72626 7.14722 6.45845 6.87896 7.62991C6.6107 8.80138 7.3429 9.9685 8.51436 10.2368Z" stroke="#F3F4F6" stroke-linecap="round" stroke-linejoin="round"/>
</g>
</svg>
