<svg width="637" height="2587" viewBox="0 0 637 2587" fill="none" xmlns="http://www.w3.org/2000/svg">
<path opacity="0.2" d="M-561.711 634.339L-809.371 570.863L-816.103 569.053C-981.755 527.021 -1096.37 436.404 -1096.37 331.384V14.1185C-1096.37 9.5446 -1090.46 5.83675 -1083.17 5.83675H-142.895C111.405 5.83675 317.538 116.651 317.538 253.36C317.538 349.528 215.563 432.883 66.5578 473.864L-561.711 634.339ZM-561.711 634.339L864.778 999.913C869.743 1001.19 872.987 1004.22 872.987 1007.58V1064.25C872.987 1068.83 867.076 1072.53 859.785 1072.53H-1785.58C-1792.87 1072.53 -1798.78 1068.83 -1798.78 1064.25V956.94C-1798.78 953.576 -1795.54 950.546 -1790.57 949.274L-561.711 634.339ZM-561.711 534.332L-765.049 482.133C-765.063 482.13 -765.078 482.128 -765.092 482.128C-765.108 482.128 -765.123 482.126 -765.137 482.122L-765.479 482.03C-862.087 456.234 -928.494 402.636 -928.494 340.7V104.394C-928.494 99.8197 -922.583 96.1118 -915.291 96.1118H-201.752C-33.1887 96.1118 103.49 169.589 103.49 260.206C103.49 325.589 32.3991 382.024 -70.5309 408.407L-78.4905 410.485L-561.711 534.332ZM-561.711 534.332L-1790.57 219.373C-1795.54 218.101 -1798.78 215.071 -1798.78 211.707V100.603C-1798.78 96.0296 -1792.87 92.3218 -1785.58 92.3218H859.785C867.076 92.3218 872.987 96.0296 872.987 100.603V161.067C872.987 164.432 869.743 167.461 864.778 168.734L-561.711 534.332ZM-1490.63 1163.84H690.233M-1490.63 1140.85H690.233M-1490.63 1117.87H690.233M-1490.63 1094.88H690.233M-1490.63 1071.9H690.233M-1490.63 1048.89H690.233M-1490.63 1025.91H690.233M-1490.63 1002.92H690.233M-1490.63 979.937H690.233M-1490.63 956.952H690.233M-1490.63 933.968H690.233M-1490.63 910.959H690.233M-1490.63 887.975H690.233M-1490.63 864.99H690.233M-1490.63 842.006H690.233M-1490.63 819.021H690.233M-1490.63 796.037H690.233M-1490.63 773.028H690.233M-1490.63 750.044H690.233M-1490.63 727.059H690.233M-1490.63 704.075H690.233M-1490.63 681.09H690.233M-1490.63 658.106H690.233M-1490.63 635.097H690.233M-1490.63 612.112H690.233M-1490.63 589.128H690.233M-1490.63 566.144H690.233M-1490.63 543.159H690.233M-1490.63 520.175H690.233M-1490.63 497.166H690.233M-1490.63 474.182H690.233M-1490.63 451.197H690.233M-1490.63 428.213H690.233M-1490.63 405.228H690.233M-1490.63 382.244H690.233M-1490.63 359.259H690.233M-1490.63 336.25H690.233M-1490.63 313.266H690.233M-1490.63 290.281H690.233M-1490.63 267.297H690.233M-1490.63 244.312H690.233M-1490.63 221.328H690.233M-1490.63 198.319H690.233M-1490.63 175.335H690.233M-1490.63 152.35H690.233M-1490.63 129.366H690.233M-1490.63 106.381H690.233M-1490.63 83.397H690.233M-1490.63 60.3881H690.233M-1490.63 37.4036H690.233M647.478 14.4192V1186.82M604.723 14.4192V1186.82M561.968 14.4192V1186.82M519.213 14.4192V1186.82M476.459 14.4192V1186.82M433.704 14.4192V1186.82M390.903 14.4192V1186.82M348.148 14.4192V1186.82M305.394 14.4192V1186.82M262.638 14.4192V1186.82M219.884 14.4192V1186.82M177.129 14.4192V1186.82M134.329 14.4192V1186.82M91.5738 14.4192V1186.82M48.8191 14.4192V1186.82M6.06449 14.4192V1186.82M-36.691 14.4192V1186.82M-79.4456 14.4192V1186.82M-122.246 14.4192V1186.82M-165.001 14.4192V1186.82M-207.756 14.4192V1186.82M-250.511 14.4192V1186.82M-293.266 14.4192V1186.82M-336.02 14.4192V1186.82M-378.821 14.4192V1186.82M-421.575 14.4192V1186.82M-464.33 14.4192V1186.82M-507.085 14.4192V1186.82M-549.84 14.4192V1186.82M-592.595 14.4192V1186.82M-635.35 14.4192V1186.82M-678.15 14.4192V1186.82M-720.905 14.4192V1186.82M-763.66 14.4192V1186.82M-806.415 14.4192V1186.82M-849.17 14.4192V1186.82M-891.925 14.4192V1186.82M-934.725 14.4192V1186.82M-977.48 14.4192V1186.82M-1020.23 14.4192V1186.82M-1062.99 14.4192V1186.82M-1105.74 14.4192V1186.82M-1148.5 14.4192V1186.82M-1191.3 14.4192V1186.82M-1234.05 14.4192V1186.82M-1276.81 14.4192V1186.82M-1319.56 14.4192V1186.82M-1362.32 14.4192V1186.82M-1405.07 14.4192V1186.82M-1447.87 14.4192V1186.82M-304.904 1831.94L-203.715 1676.58L-200.831 1672.36C-133.826 1568.44 10.6292 1496.54 178.043 1496.54L683.804 1496.54C691.096 1496.54 697.006 1500.25 697.006 1504.82V2094.66C697.006 2254.19 520.354 2383.49 302.424 2383.49C149.121 2383.49 16.2422 2319.52 -49.0862 2226.05L-304.904 1831.94ZM-304.904 1831.94L-887.674 2726.78C-889.702 2729.89 -894.532 2731.93 -899.896 2731.93H-990.24C-997.532 2731.93 -1003.44 2728.22 -1003.44 2723.65L-1003.44 1064.2C-1003.44 1059.63 -997.531 1055.92 -990.24 1055.92H-819.17C-813.807 1055.92 -808.977 1057.95 -806.949 1061.07L-304.904 1831.94ZM-145.481 1831.94L-62.2694 1704.38C-62.2638 1704.37 -62.2609 1704.37 -62.2609 1704.36C-62.2609 1704.35 -62.2579 1704.34 -62.2518 1704.33L-62.1052 1704.11C-20.9826 1643.51 64.459 1601.85 163.192 1601.85L539.895 1601.85C547.186 1601.85 553.097 1605.56 553.097 1610.14V2057.74C553.097 2163.48 435.965 2249.22 291.51 2249.22C187.281 2249.22 97.3179 2204.63 55.2598 2140.06L51.9466 2135.06L-145.481 1831.94ZM-145.481 1831.94L356.603 1061.07C358.632 1057.95 363.462 1055.92 368.825 1055.92H545.937C553.228 1055.92 559.139 1059.63 559.139 1064.2L559.138 2723.65C559.138 2728.22 553.228 2731.93 545.936 2731.93H449.55C444.187 2731.93 439.357 2729.89 437.328 2726.78L-145.481 1831.94ZM-1148.99 1249.22L-1148.99 2617.29M-1112.35 1249.22L-1112.35 2617.29M-1075.71 1249.22L-1075.71 2617.29M-1039.07 1249.22L-1039.07 2617.29M-1002.43 1249.22L-1002.43 2617.29M-965.75 1249.22L-965.75 2617.29M-929.11 1249.22L-929.11 2617.29M-892.47 1249.22L-892.47 2617.29M-855.83 1249.22L-855.83 2617.29M-819.19 1249.22L-819.19 2617.29M-782.55 1249.22L-782.55 2617.29M-745.871 1249.22L-745.871 2617.29M-709.231 1249.22L-709.231 2617.29M-672.591 1249.22V2617.29M-635.951 1249.22L-635.951 2617.29M-599.311 1249.22L-599.311 2617.29M-562.67 1249.22L-562.67 2617.29M-525.991 1249.22L-525.992 2617.29M-489.352 1249.22V2617.29M-452.711 1249.22L-452.711 2617.29M-416.071 1249.22L-416.071 2617.29M-379.431 1249.22L-379.431 2617.29M-342.791 1249.22L-342.791 2617.29M-306.112 1249.22L-306.112 2617.29M-269.472 1249.22L-269.472 2617.29M-232.832 1249.22L-232.832 2617.29M-196.192 1249.22L-196.192 2617.29M-159.552 1249.22L-159.552 2617.29M-122.912 1249.22L-122.912 2617.29M-86.2328 1249.22V2617.29M-49.5931 1249.22L-49.5933 2617.29M-12.9528 1249.22L-12.953 2617.29M23.6869 1249.22V2617.29M60.327 1249.22V2617.29M96.9671 1249.22V2617.29M133.607 1249.22V2617.29M170.286 1249.22L170.286 2617.29M206.927 1249.22L206.926 2617.29M243.566 1249.22L243.566 2617.29M280.207 1249.22L280.206 2617.29M316.847 1249.22L316.846 2617.29M353.487 1249.22L353.487 2617.29M390.166 1249.22V2617.29M426.806 1249.22V2617.29M463.446 1249.22V2617.29M500.086 1249.22L500.085 2617.29M536.726 1249.22L536.726 2617.29M573.366 1249.22L573.366 2617.29M610.045 1249.22L610.045 2617.29M646.685 1249.22V2617.29M683.325 2590.47H-1185.63M683.325 2563.65H-1185.63M683.325 2536.83H-1185.63M683.325 2510.01H-1185.63M683.325 2483.19H-1185.63M683.325 2456.37L-1185.63 2456.37M683.325 2429.52H-1185.63M683.325 2402.7H-1185.63M683.325 2375.88H-1185.63M683.325 2349.06H-1185.63M683.325 2322.24L-1185.63 2322.24M683.325 2295.42H-1185.63M683.325 2268.57H-1185.63M683.325 2241.75H-1185.63M683.325 2214.93L-1185.63 2214.93M683.325 2188.11H-1185.63M683.325 2161.29L-1185.63 2161.28M683.325 2134.46H-1185.63M683.325 2107.62H-1185.63M683.325 2080.8L-1185.63 2080.8M683.325 2053.98H-1185.63M683.325 2027.15H-1185.63M683.325 2000.33H-1185.63M683.325 1973.51L-1185.63 1973.51M683.325 1946.67L-1185.63 1946.67M683.325 1919.85H-1185.63M683.325 1893.03H-1185.63M683.325 1866.2L-1185.63 1866.2M683.325 1839.38H-1185.63M683.325 1812.56H-1185.63M683.325 1785.74H-1185.63M683.325 1758.9H-1185.63M683.325 1732.07L-1185.63 1732.07M683.325 1705.25H-1185.63M683.325 1678.43L-1185.63 1678.43M683.325 1651.61H-1185.63M683.325 1624.79H-1185.63M683.325 1597.94H-1185.63M683.325 1571.12L-1185.63 1571.12M683.325 1544.3H-1185.63M683.325 1517.48H-1185.63M683.325 1490.66H-1185.63M683.325 1463.84L-1185.63 1463.84M683.325 1436.99H-1185.63M683.325 1410.17L-1185.63 1410.17M683.325 1383.35H-1185.63M683.325 1356.53L-1185.63 1356.53M683.325 1329.71L-1185.63 1329.71M683.325 1302.89H-1185.63M683.325 1276.04L-1185.63 1276.04M66.1938 694.783L-336.283 591.981C-347.247 589.181 -347.248 579.441 -336.283 576.641L66.1938 473.839C209.968 434.301 309.942 355.298 316.765 263.409C316.992 260.059 317.174 256.709 317.174 253.335C317.174 116.627 111.041 5.8122 -143.259 5.8122H-1083.54C-1090.83 5.8122 -1096.74 9.52005 -1096.74 14.0939V331.36C-1096.74 436.379 -982.119 526.997 -816.467 569.029L-809.735 570.838L-787.076 576.644C-776.13 579.449 -776.13 589.173 -787.076 591.978L-809.735 597.784L-816.467 599.593C-982.119 641.65 -1096.74 732.267 -1096.74 837.262V1154.53C-1096.74 1159.1 -1090.83 1162.81 -1083.54 1162.81H-143.259C111.041 1162.81 317.174 1052 317.174 915.287C317.174 819.144 215.199 735.788 66.1938 694.783ZM-765.798 482.006L-765.455 482.098C-765.441 482.102 -765.426 482.104 -765.411 482.104C-765.396 482.104 -765.381 482.106 -765.367 482.109L-567.026 533.025C-563.824 533.847 -560.235 533.848 -557.032 533.027L-78.8088 410.461L-70.8492 408.382C30.3524 382.439 100.762 327.399 103.081 263.409C103.081 262.333 103.172 261.257 103.172 260.182C103.172 169.564 -33.5068 96.0873 -202.07 96.0873H-915.61C-922.901 96.0873 -928.812 99.7952 -928.812 104.369V340.676C-928.812 402.612 -862.405 456.209 -765.798 482.006ZM-202.07 1072.53H-915.61C-922.901 1072.53 -928.812 1068.83 -928.812 1064.25V827.946C-928.812 766.01 -862.405 712.413 -765.798 686.616L-765.434 686.519L-567.071 635.597C-563.869 634.775 -560.281 634.774 -557.078 635.595L-78.8542 758.161L-70.8944 760.24C32.0357 786.623 103.127 843.057 103.127 908.441C103.127 999.058 -33.5524 1072.53 -202.116 1072.53H-202.07ZM66.5578 694.783C215.563 735.764 317.538 819.119 317.538 915.287C317.538 1052 111.405 1162.81 -142.895 1162.81H-1083.17C-1090.46 1162.81 -1096.37 1159.1 -1096.37 1154.53V837.262C-1096.37 732.243 -981.755 641.626 -816.103 599.593L-809.371 597.784L-566.696 535.585C-563.501 534.766 -559.921 534.765 -556.724 535.582L66.5578 694.783ZM-78.4905 758.162L-556.714 635.595C-559.917 634.774 -563.506 634.775 -566.708 635.597L-765.049 686.513C-765.063 686.517 -765.078 686.519 -765.092 686.519C-765.108 686.519 -765.123 686.521 -765.137 686.524L-765.479 686.616C-862.087 712.413 -928.494 766.011 -928.494 827.946V1064.25C-928.494 1068.83 -922.583 1072.53 -915.291 1072.53H-201.752C-33.1887 1072.53 103.49 999.058 103.49 908.441C103.49 843.057 32.3991 786.623 -70.5309 760.24L-78.4905 758.162ZM-78.6724 408.407C18.2388 383.564 86.913 332.038 94.5987 271.522C95.1685 267.036 100.989 263.434 108.163 263.434H295.156C302.688 263.434 308.719 267.384 308.065 272.091C295.813 360.268 197.655 435.573 58.4161 473.864L-569.853 634.339L-773.211 686.543L-773.575 686.641C-870.183 712.437 -936.59 766.035 -936.59 827.971V944.074C-936.59 948.648 -942.5 952.356 -949.792 952.356H-1091.31C-1098.61 952.356 -1104.52 948.648 -1104.52 944.074V837.287C-1104.52 732.292 -989.897 641.674 -824.244 599.618L-817.513 597.808L-86.632 410.485L-78.6724 408.407ZM-569.899 534.308L-773.257 482.104L-773.621 482.006C-870.229 456.209 -936.635 402.612 -936.635 340.676V104.369C-936.635 99.7952 -930.724 96.0873 -923.433 96.0873H-209.893C-41.3301 96.0873 95.3487 169.564 95.3487 260.182C95.3487 261.964 97.5621 263.409 100.404 263.409H296.335C303.408 263.409 309.279 259.913 309.373 255.477C309.388 254.764 309.396 254.05 309.396 253.335C309.396 116.627 103.263 5.8122 -151.037 5.8122H-1091.31C-1098.61 5.8122 -1104.52 9.52005 -1104.52 14.0939V331.36C-1104.52 436.379 -989.897 526.997 -824.244 569.029L-817.513 570.838L-86.632 758.162L-78.6724 760.24C24.2576 786.623 95.3487 843.057 95.3487 908.441C95.3487 999.058 -41.3301 1072.54 -209.893 1072.54H-923.433C-930.724 1072.54 -936.635 1068.83 -936.635 1064.25V960.589C-936.635 956.015 -942.546 952.307 -949.837 952.307H-1091.36C-1098.65 952.307 -1104.56 956.015 -1104.56 960.589V1154.5C-1104.56 1159.08 -1098.65 1162.79 -1091.36 1162.79H-151.083C103.218 1162.79 309.351 1051.97 309.351 915.263C309.351 819.123 207.384 735.771 58.3887 694.764C58.3802 694.761 58.3706 694.765 58.3706 694.771C58.3706 694.777 58.3613 694.781 58.3528 694.779L-569.899 534.308ZM-65.7095 844.402C-65.7095 997.405 -296.432 1121.44 -581.042 1121.44C-865.652 1121.44 -1096.37 997.405 -1096.37 844.402C-1096.37 691.399 -865.652 567.366 -581.042 567.366C-296.432 567.366 -65.7095 691.399 -65.7095 844.402ZM-898.701 1109.68C-898.701 1139.02 -942.952 1162.81 -997.538 1162.81C-1052.12 1162.81 -1096.37 1139.02 -1096.37 1109.68C-1096.37 1080.33 -1052.12 1056.54 -997.538 1056.54C-942.952 1056.54 -898.701 1080.33 -898.701 1109.68ZM-898.701 58.9699C-898.701 88.3145 -942.952 112.103 -997.538 112.103C-1052.12 112.103 -1096.37 88.3145 -1096.37 58.9699C-1096.37 29.6252 -1052.12 5.83675 -997.538 5.83675C-942.952 5.83675 -898.701 29.6252 -898.701 58.9699ZM103.536 907.927C103.536 998.838 -33.5532 1072.53 -202.661 1072.53C-371.77 1072.53 -508.859 998.838 -508.859 907.927C-508.859 817.017 -371.77 743.319 -202.661 743.319C-33.5532 743.319 103.536 817.017 103.536 907.927ZM-316.053 831.198C-316.053 922.109 -453.142 995.806 -622.25 995.806C-791.359 995.806 -928.448 922.109 -928.448 831.198C-928.448 740.288 -791.359 666.591 -622.25 666.591C-453.142 666.591 -316.053 740.288 -316.053 831.198ZM316.583 914.7C316.583 1051.73 109.951 1162.81 -144.942 1162.81C-399.835 1162.81 -606.468 1051.73 -606.468 914.7C-606.468 777.673 -399.835 666.591 -144.942 666.591C109.951 666.591 316.583 777.673 316.583 914.7ZM-65.7095 324.245C-65.7095 477.247 -296.432 601.28 -581.042 601.28C-865.652 601.28 -1096.37 477.247 -1096.37 324.245C-1096.37 171.242 -865.652 47.2088 -581.042 47.2088C-296.432 47.2088 -65.7095 171.242 -65.7095 324.245ZM103.536 260.695C103.536 351.605 -33.5532 425.303 -202.661 425.303C-371.77 425.303 -508.859 351.605 -508.859 260.695C-508.859 169.785 -371.77 96.0873 -202.661 96.0873C-33.5532 96.0873 103.536 169.785 103.536 260.695ZM-316.053 337.424C-316.053 428.334 -453.142 502.032 -622.25 502.032C-791.359 502.032 -928.448 428.334 -928.448 337.424C-928.448 246.514 -791.359 172.816 -622.25 172.816C-453.142 172.816 -316.053 246.514 -316.053 337.424ZM316.583 253.922C316.583 390.949 109.951 502.032 -144.942 502.032C-399.835 502.032 -606.468 390.949 -606.468 253.922C-606.468 116.895 -399.835 5.8122 -144.942 5.8122C109.951 5.8122 316.583 116.895 316.583 253.922ZM-1785.58 2.04669H859.74C867.031 2.04669 872.942 -1.66113 872.942 -6.23499V-104.838C872.942 -109.412 867.031 -113.12 859.74 -113.12H-1785.58C-1792.87 -113.12 -1798.78 -109.412 -1798.78 -104.838V-6.23502C-1798.78 -1.66116 -1792.87 2.04669 -1785.58 2.04669ZM872.942 1448.29V1261.37C872.942 1256.79 867.031 1253.09 859.74 1253.09H-1785.58C-1792.87 1253.09 -1798.78 1256.79 -1798.78 1261.37V1448.29C-1798.78 1452.86 -1792.87 1456.57 -1785.58 1456.57H859.74C867.031 1456.57 872.942 1452.86 872.942 1448.29ZM854.792 897.347L-336.671 592.002C-347.617 589.197 -347.617 579.474 -336.672 576.669L854.792 271.3C863.477 269.074 872.987 273.082 872.987 278.967V889.68C872.987 895.565 863.477 899.573 854.792 897.347ZM-786.706 592.002L-1780.59 846.708C-1789.27 848.933 -1798.78 844.926 -1798.78 839.041V329.606C-1798.78 323.721 -1789.27 319.714 -1780.59 321.939L-786.706 576.669C-775.76 579.474 -775.761 589.197 -786.706 592.002ZM-1083.17 1548.68H-941.65C-934.359 1548.68 -928.448 1544.97 -928.448 1540.4V-320.917C-928.448 -325.49 -934.359 -329.198 -941.65 -329.198H-1083.17C-1090.46 -329.198 -1096.37 -325.49 -1096.37 -320.917V1540.4C-1096.37 1544.97 -1090.46 1548.68 -1083.17 1548.68ZM-1477.43 1186.82H677.031C684.322 1186.82 690.233 1183.11 690.233 1178.54V22.7009C690.233 18.127 684.322 14.4192 677.031 14.4192H-1477.43C-1484.72 14.4192 -1490.63 18.127 -1490.63 22.7009V1178.54C-1490.63 1183.11 -1484.72 1186.82 -1477.43 1186.82ZM-401.259 2225.83L-237.381 1973.35C-232.916 1966.47 -217.39 1966.47 -212.926 1973.35L-49.0474 2225.83C13.9813 2316.02 139.922 2378.73 286.404 2383.01C291.744 2383.15 297.084 2383.27 302.463 2383.27C520.394 2383.27 697.045 2253.96 697.045 2094.43V1504.59C697.045 1500.02 691.135 1496.31 683.843 1496.31H178.082C10.6682 1496.31 -133.787 1568.21 -200.792 1672.13L-203.676 1676.35L-212.931 1690.57C-217.403 1697.43 -232.904 1697.43 -237.375 1690.57L-246.631 1676.35L-249.515 1672.13C-316.559 1568.21 -461.014 1496.31 -628.388 1496.31H-1134.15C-1141.44 1496.31 -1147.35 1500.02 -1147.35 1504.59L-1147.35 2094.43C-1147.35 2253.96 -970.7 2383.27 -752.77 2383.27C-599.505 2383.27 -466.627 2319.3 -401.259 2225.83ZM-62.0661 1703.91L-62.2128 1704.13C-62.2188 1704.14 -62.222 1704.15 -62.222 1704.16C-62.222 1704.17 -62.2249 1704.17 -62.2305 1704.18L-143.397 1828.6C-144.708 1830.61 -144.709 1832.86 -143.4 1834.87L51.9859 2134.86L55.2989 2139.86C96.6554 2203.34 184.397 2247.51 286.404 2248.96C288.119 2248.96 289.834 2249.02 291.549 2249.02C436.005 2249.02 553.136 2163.28 553.136 2057.54V1609.94C553.136 1605.36 547.225 1601.65 539.934 1601.65H163.231C64.4979 1601.65 -20.9435 1643.31 -62.0661 1703.91ZM-1003.44 2057.54V1609.94C-1003.44 1605.36 -997.532 1601.65 -990.24 1601.65L-613.538 1601.65C-514.804 1601.65 -429.363 1643.31 -388.24 1703.91L-388.085 1704.14L-306.909 1828.58C-305.599 1830.58 -305.598 1832.84 -306.906 1834.84L-502.292 2134.84L-505.605 2139.83C-547.664 2204.4 -637.627 2248.99 -741.856 2248.99C-886.311 2248.99 -1003.44 2163.25 -1003.44 2057.51V2057.54ZM-401.259 2226.05C-466.588 2319.52 -599.466 2383.49 -752.77 2383.49C-970.7 2383.49 -1147.35 2254.19 -1147.35 2094.66L-1147.35 1504.82C-1147.35 1500.25 -1141.44 1496.54 -1134.15 1496.54H-628.389C-460.975 1496.54 -316.52 1568.44 -249.515 1672.36L-246.631 1676.58L-147.479 1828.81C-146.173 1830.82 -146.171 1833.06 -147.473 1835.07L-401.259 2226.05ZM-502.292 2135.06L-306.907 1835.07C-305.598 1833.06 -305.599 1830.81 -306.91 1828.8L-388.076 1704.38C-388.082 1704.37 -388.085 1704.37 -388.085 1704.36C-388.085 1704.35 -388.088 1704.34 -388.094 1704.33L-388.241 1704.11C-429.363 1643.51 -514.805 1601.85 -613.538 1601.85H-990.24C-997.532 1601.85 -1003.44 1605.56 -1003.44 1610.14V2057.74C-1003.44 2163.48 -886.311 2249.22 -741.856 2249.22C-637.627 2249.22 -547.664 2204.63 -505.606 2140.06L-502.292 2135.06ZM55.2598 2134.95C94.863 2195.74 177.001 2238.82 273.471 2243.64C280.622 2244 286.365 2247.65 286.365 2252.15V2369.45C286.365 2374.18 280.068 2377.96 272.564 2377.55C131.999 2369.87 11.954 2308.29 -49.0862 2220.95L-304.904 1826.83L-388.124 1699.26L-388.28 1699.03C-429.402 1638.43 -514.843 1596.78 -613.577 1596.78H-798.66C-805.951 1596.78 -811.862 1593.07 -811.862 1588.49V1499.72C-811.862 1495.14 -805.951 1491.43 -798.66 1491.43H-628.428C-461.053 1491.43 -316.598 1563.34 -249.554 1667.25L-246.67 1671.47L51.9466 2129.96L55.2598 2134.95ZM-145.442 1826.8L-62.222 1699.23L-62.0661 1699.01C-20.9435 1638.4 64.4979 1596.75 163.231 1596.75H539.934C547.225 1596.75 553.136 1600.45 553.136 1605.03V2052.63C553.136 2158.37 436.005 2244.11 291.549 2244.11C288.707 2244.11 286.404 2245.5 286.404 2247.29V2370.19C286.404 2374.63 291.977 2378.31 299.05 2378.37C300.186 2378.38 301.324 2378.39 302.463 2378.39C520.394 2378.39 697.045 2249.08 697.045 2089.56V1499.72C697.045 1495.14 691.135 1491.43 683.843 1491.43H178.082C10.6682 1491.43 -133.787 1563.34 -200.792 1667.25L-203.676 1671.47L-502.292 2129.96L-505.605 2134.95C-547.664 2199.52 -637.627 2244.11 -741.856 2244.11C-886.311 2244.11 -1003.44 2158.37 -1003.44 2052.63L-1003.44 1605.03C-1003.44 1600.45 -997.532 1596.75 -990.24 1596.75H-824.986C-817.695 1596.75 -811.784 1593.04 -811.784 1588.46L-811.784 1499.69C-811.784 1495.11 -817.695 1491.41 -824.986 1491.41H-1134.11C-1141.4 1491.41 -1147.31 1495.11 -1147.31 1499.69V2089.53C-1147.31 2249.05 -970.661 2378.36 -752.731 2378.36C-599.473 2378.36 -466.599 2314.39 -401.229 2220.93C-401.225 2220.92 -401.231 2220.92 -401.24 2220.92C-401.25 2220.92 -401.256 2220.91 -401.252 2220.91L-145.442 1826.8ZM-639.771 2143.08C-883.676 2143.08 -1081.4 1998.35 -1081.4 1819.81C-1081.4 1641.27 -883.676 1496.54 -639.771 1496.54C-395.865 1496.54 -198.141 1641.27 -198.141 1819.81C-198.141 1998.35 -395.865 2143.08 -639.771 2143.08ZM-1062.65 1620.54C-1109.43 1620.54 -1147.35 1592.78 -1147.35 1558.54C-1147.35 1524.3 -1109.43 1496.54 -1062.65 1496.54C-1015.87 1496.54 -977.95 1524.3 -977.95 1558.54C-977.95 1592.78 -1015.87 1620.54 -1062.65 1620.54ZM612.305 1620.54C565.526 1620.54 527.605 1592.78 527.605 1558.54C527.605 1524.3 565.526 1496.54 612.305 1496.54C659.084 1496.54 697.006 1524.3 697.006 1558.54C697.006 1592.78 659.084 1620.54 612.305 1620.54ZM-741.037 2249.25C-885.96 2249.25 -1003.44 2163.25 -1003.44 2057.17C-1003.44 1951.09 -885.96 1865.09 -741.037 1865.09C-596.115 1865.09 -478.632 1951.09 -478.632 2057.17C-478.632 2163.25 -596.115 2249.25 -741.037 2249.25ZM-618.722 1986.04C-763.644 1986.04 -881.127 1900.04 -881.127 1793.96C-881.127 1687.88 -763.644 1601.88 -618.722 1601.88C-473.8 1601.88 -356.317 1687.88 -356.317 1793.96C-356.317 1900.04 -473.8 1986.04 -618.722 1986.04ZM-751.834 2382.9C-970.273 2382.9 -1147.35 2253.27 -1147.35 2093.38C-1147.35 1933.48 -970.273 1803.86 -751.834 1803.86C-533.396 1803.86 -356.317 1933.48 -356.317 2093.38C-356.317 2253.27 -533.396 2382.9 -751.834 2382.9ZM189.425 2143.08C-54.4804 2143.08 -252.205 1998.35 -252.205 1819.81C-252.205 1641.27 -54.4802 1496.54 189.425 1496.54C433.33 1496.54 631.054 1641.27 631.054 1819.81C631.054 1998.35 433.33 2143.08 189.425 2143.08ZM290.731 2249.25C145.808 2249.25 28.3257 2163.25 28.3257 2057.17C28.3257 1951.09 145.808 1865.09 290.731 1865.09C435.653 1865.09 553.136 1951.09 553.136 2057.17C553.136 2163.25 435.653 2249.25 290.731 2249.25ZM168.415 1986.04C23.4929 1986.04 -93.9899 1900.04 -93.9899 1793.96C-93.9899 1687.88 23.4929 1601.88 168.415 1601.88C313.337 1601.88 430.82 1687.88 430.82 1793.96C430.82 1900.04 313.337 1986.04 168.415 1986.04ZM301.528 2382.9C83.0897 2382.9 -93.9897 2253.27 -93.9897 2093.38C-93.9897 1933.48 83.0897 1803.86 301.528 1803.86C519.966 1803.86 697.045 1933.48 697.045 2093.38C697.045 2253.27 519.966 2382.9 301.528 2382.9ZM703.048 1064.2L703.048 2723.62C703.048 2728.19 708.959 2731.9 716.25 2731.9H873.436C880.727 2731.9 886.638 2728.19 886.638 2723.62V1064.2C886.638 1059.63 880.727 1055.92 873.436 1055.92H716.25C708.959 1055.92 703.048 1059.63 703.048 1064.2ZM-1602.44 2731.9H-1304.46C-1297.17 2731.9 -1291.26 2728.19 -1291.26 2723.62L-1291.26 1064.2C-1291.26 1059.63 -1297.17 1055.92 -1304.46 1055.92H-1602.44C-1609.73 1055.92 -1615.64 1059.63 -1615.64 1064.2L-1615.64 2723.62C-1615.64 2728.19 -1609.73 2731.9 -1602.44 2731.9ZM-724.171 2720.52L-237.413 1973.11C-232.942 1966.24 -217.442 1966.24 -212.971 1973.11L273.825 2720.52C277.373 2725.96 270.985 2731.93 261.603 2731.93H-711.95C-721.331 2731.93 -727.719 2725.96 -724.171 2720.52ZM-237.413 1690.8L-643.446 1067.33C-646.994 1061.88 -640.606 1055.92 -631.225 1055.92H180.878C190.26 1055.92 196.648 1061.88 193.1 1067.33L-212.97 1690.8C-217.442 1697.66 -232.942 1697.66 -237.413 1690.8ZM-1762.48 1504.82L-1762.48 1593.6C-1762.48 1598.17 -1756.57 1601.88 -1749.27 1601.88L1217.89 1601.88C1225.18 1601.88 1231.09 1598.17 1231.09 1593.6V1504.82C1231.09 1500.25 1225.18 1496.54 1217.89 1496.54H-1749.27C-1756.57 1496.54 -1762.48 1500.25 -1762.48 1504.82ZM-1185.63 1257.51L-1185.63 2609.01C-1185.63 2613.58 -1179.72 2617.29 -1172.43 2617.29H670.123C677.414 2617.29 683.325 2613.58 683.325 2609.01V1257.51C683.325 1252.93 677.414 1249.22 670.123 1249.22H-1172.43C-1179.72 1249.22 -1185.63 1252.93 -1185.63 1257.51Z" stroke="#9CA3AF" stroke-width="0.5" stroke-miterlimit="10"/>
</svg>
