<svg width="66" height="45" viewBox="0 0 66 45" fill="none" xmlns="http://www.w3.org/2000/svg">
<path d="M37.9691 14.2928L33.1445 12L37.9691 9.70716C39.5739 8.88772 40.6875 7.24885 40.7636 5.34209C40.7663 5.2738 40.7689 5.20289 40.7689 5.13198C40.7689 2.2981 38.4708 0 35.6343 0H25V6.75509C25 8.935 26.2791 10.8129 28.1254 11.6848L28.2016 11.7216L28.7873 12L28.2016 12.2784L28.1254 12.3152C26.2791 13.1871 25 15.0676 25 17.2449V24H35.6343C38.4708 24 40.7689 21.7019 40.7689 18.8654C40.7689 16.8693 39.6316 15.1412 37.9691 14.2902V14.2928ZM28.6953 9.8805H28.6901C27.6133 9.34209 26.8726 8.23112 26.8726 6.94682V1.87262H34.9777C36.8582 1.87262 38.3815 3.39593 38.3815 5.27643C38.3815 5.30007 38.3815 5.32108 38.3815 5.34471C38.3552 6.67367 37.5699 7.81353 36.4406 8.35194L36.3513 8.39396L30.9619 10.9626L28.6927 9.8805H28.6953ZM34.9777 22.13H26.8726V17.0558C26.8726 15.7715 27.6133 14.6579 28.6901 14.1248H28.6953L30.9645 13.0401L36.3539 15.6087L36.4432 15.6507C37.5909 16.197 38.3841 17.3684 38.3841 18.7262C38.3841 20.6067 36.8608 22.13 34.9803 22.13H34.9777Z" fill="#9CA3AF"/>
<path d="M0 41.4361V30.9961C0 30.4438 0.447715 29.9961 1 29.9961H5.12C6.352 29.9961 7.296 30.3001 7.888 30.8281C8.512 31.3881 8.8 32.0761 8.8 32.9721C8.8 34.1401 8.08 34.8921 7.008 35.2601V35.3081C8.272 35.6761 9.136 36.7321 9.136 38.1401C9.136 39.2121 8.8 39.9481 8.128 40.5241C7.472 41.1001 6.464 41.4361 5.248 41.4361H0ZM3.32 36.3161C2.76771 36.3161 2.32 36.7638 2.32 37.3161V39.5161H4.992C6.112 39.5161 6.784 38.8921 6.784 37.9641C6.784 36.8761 5.984 36.3161 4.928 36.3161H3.32ZM2.32 34.6041H4.832C5.84 34.6041 6.528 34.1241 6.528 33.2281C6.528 32.3801 5.904 31.8841 4.88 31.8841H3.32C2.76772 31.8841 2.32 32.3318 2.32 32.8841V34.6041Z" fill="#9CA3AF"/>
<path d="M10.4219 44.1241V42.4121H11.1899C12.0539 42.4121 12.4059 41.9641 12.4059 41.2921C12.4059 40.8441 12.2459 40.3161 11.7819 39.0681L9.57387 33.2281H11.8619L13.0779 36.9241C13.3339 37.6761 13.6059 38.7161 13.6059 38.7161H13.6379C13.6379 38.7161 13.8619 37.6761 14.1179 36.9241L15.2699 33.2281H17.4619L14.5979 41.6441C13.9739 43.4681 13.3659 44.1241 11.7019 44.1241H10.4219Z" fill="#9CA3AF"/>
<path d="M17.9534 34.6681V33.2281H19.0894V30.6681H21.2174V33.2281H22.6254V34.6681H21.2174V39.0201C21.2174 39.6281 21.5534 39.8361 22.0334 39.8361C22.3054 39.8361 22.6734 39.8201 22.6734 39.8201V41.4201C22.6734 41.4201 22.1774 41.4521 21.3134 41.4521C20.2574 41.4521 19.0894 41.0361 19.0894 39.4841V34.6681H17.9534Z" fill="#9CA3AF"/>
<path d="M27.5238 41.6761C24.8038 41.6761 23.2678 39.7721 23.2678 37.3241C23.2678 34.8921 24.9158 33.0041 27.3158 33.0041C29.9558 33.0041 31.3638 35.0201 31.3638 37.9481H25.4118C25.5718 39.2121 26.2758 39.9961 27.5078 39.9961C28.3558 39.9961 28.8518 39.6121 29.0918 38.9881H31.2358C30.9318 40.4441 29.6358 41.6761 27.5238 41.6761ZM27.3478 34.6841C26.1958 34.6841 25.6357 35.3721 25.4438 36.4441H29.0918C29.0278 35.4041 28.3398 34.6841 27.3478 34.6841Z" fill="#9CA3AF"/>
<path d="M36.1789 41.6761C33.5869 41.6761 31.9709 39.7881 31.9709 37.3401C31.9709 34.8921 33.5709 33.0041 36.0669 33.0041C38.1949 33.0041 39.5069 34.2361 39.7949 36.0121H37.6669C37.5229 35.2921 36.9629 34.7481 36.1629 34.7481C34.8509 34.7481 34.1789 35.7561 34.1789 37.3401C34.1789 38.8921 34.8029 39.9321 36.1309 39.9321C37.0109 39.9321 37.6349 39.4681 37.7789 38.5401H39.8749C39.7309 40.2841 38.3709 41.6761 36.1789 41.6761Z" fill="#9CA3AF"/>
<path d="M43 29.9961V34.3001H43.048C43.64 33.4361 44.312 33.0041 45.432 33.0041C47.128 33.0041 48.264 34.2841 48.264 36.0761V41.4361H46.088V36.3961C46.088 35.5161 45.576 34.8921 44.664 34.8921C43.704 34.8921 43 35.6601 43 36.7801V41.4361H40.824V29.9961H43Z" fill="#9CA3AF"/>
<path d="M53.4932 41.6761C50.9492 41.6761 49.2052 39.7881 49.2052 37.3401C49.2052 34.8921 50.9492 33.0041 53.4932 33.0041C56.0372 33.0041 57.7812 34.8921 57.7812 37.3401C57.7812 39.7881 56.0372 41.6761 53.4932 41.6761ZM53.4932 40.0121C54.8212 40.0121 55.5732 38.9401 55.5732 37.3401C55.5732 35.7401 54.8212 34.6521 53.4932 34.6521C52.1492 34.6521 51.4132 35.7401 51.4132 37.3401C51.4132 38.9401 52.1492 40.0121 53.4932 40.0121Z" fill="#9CA3AF"/>
<rect x="59" y="39.9961" width="7" height="2" fill="#10B981"/>
</svg>
