<svg width="43" height="42" viewBox="0 0 43 42" fill="none" xmlns="http://www.w3.org/2000/svg">
<g id="SEO">
<path id="Ellipse 650" d="M1.33398 18.6C1.33398 23.2678 3.18827 27.7444 6.48891 31.0451C9.78955 34.3457 14.2662 36.2 18.934 36.2C23.6018 36.2 28.0784 34.3457 31.3791 31.0451C34.6797 27.7444 36.534 23.2678 36.534 18.6C36.534 13.9322 34.6797 9.45556 31.3791 6.15492C28.0784 2.85428 23.6018 1 18.934 1C14.2662 1 9.78955 2.85428 6.48891 6.15492C3.18827 9.45556 1.33398 13.9322 1.33398 18.6Z" fill="#1E3A8A"/>
<path id="Ellipse 651" d="M1.33398 18.6C1.33398 23.2678 3.18827 27.7444 6.48891 31.0451C9.78955 34.3457 14.2662 36.2 18.934 36.2C23.6018 36.2 28.0784 34.3457 31.3791 31.0451C34.6797 27.7444 36.534 23.2678 36.534 18.6C36.534 13.9322 34.6797 9.45556 31.3791 6.15492C28.0784 2.85428 23.6018 1 18.934 1C14.2662 1 9.78955 2.85428 6.48891 6.15492C3.18827 9.45556 1.33398 13.9322 1.33398 18.6Z" stroke="#DBEAFE" stroke-width="1.71429" stroke-linecap="round" stroke-linejoin="round"/>
<path id="Vector 1950" d="M31.718 31.3838L41.334 40.9998" stroke="#DBEAFE" stroke-width="1.71429" stroke-linecap="round" stroke-linejoin="round"/>
<path id="Vector 2105" d="M7.78519 19.0994H12.6812L15.9836 12.8018L20.9852 24.4018L25.2828 19.0994H30.0828" stroke="#DBEAFE" stroke-width="1.71429" stroke-linecap="round" stroke-linejoin="round"/>
</g>
</svg>
