<svg width="128" height="91" viewBox="0 0 128 91" fill="none" xmlns="http://www.w3.org/2000/svg">
<path d="M122.645 72.6011H35.3096C32.8522 72.6011 30.8602 70.609 30.8602 68.1515V20.9186C30.8602 18.4612 32.8522 16.4692 35.3096 16.4692H122.645C125.102 16.4692 127.094 18.4612 127.094 20.9186V68.1515C127.094 70.609 125.102 72.6011 122.645 72.6011Z" fill="#60A5FA"/>
<path d="M54.7758 58.8696C54.7758 57.8873 55.5721 57.0905 56.5549 57.0905C49.6319 57.0905 43.9995 51.4581 43.9995 44.5351C43.9995 37.612 49.6319 31.9796 56.5549 31.9796C63.478 31.9796 69.1104 37.612 69.1104 44.5351C69.1104 43.5527 69.9066 42.7559 70.8895 42.7559C71.8724 42.7559 72.6686 43.5522 72.6686 44.5351C72.6686 35.6501 65.4404 28.4219 56.5555 28.4219C47.6706 28.4219 40.4424 35.6507 40.4424 44.5351C40.4424 53.42 47.6706 60.6481 56.5555 60.6481C55.5721 60.6487 54.7758 59.8519 54.7758 58.8696Z" fill="#F3F4F6"/>
<path d="M70.889 42.7563C69.9067 42.7563 69.1099 43.5526 69.1099 44.5355C69.1099 51.4586 63.4776 57.0909 56.5545 57.0909C55.5722 57.0909 54.7754 57.8872 54.7754 58.8701C54.7754 59.8529 55.5716 60.6491 56.5545 60.6491C65.4394 60.6491 72.6676 53.421 72.6676 44.536C72.6681 43.5526 71.8719 42.7563 70.889 42.7563Z" fill="#6EE7B7"/>
<path d="M116.358 33.9238H84.3245C83.7976 33.9238 83.3707 33.4969 83.3707 32.9699C83.3707 32.443 83.7976 32.0161 84.3245 32.0161H116.358C116.885 32.0161 117.312 32.443 117.312 32.9699C117.312 33.4963 116.885 33.9238 116.358 33.9238Z" fill="#F3F4F6"/>
<path d="M101.248 39.1253H84.3245C83.7976 39.1253 83.3707 38.6985 83.3707 38.1716C83.3707 37.6447 83.7976 37.2178 84.3245 37.2178H101.248C101.775 37.2178 102.202 37.6447 102.202 38.1716C102.202 38.6985 101.775 39.1253 101.248 39.1253Z" fill="#F3F4F6"/>
<path d="M95.2243 58.3432H84.3245C83.7976 58.3432 83.3707 57.9163 83.3707 57.3894C83.3707 56.8625 83.7976 56.4355 84.3245 56.4355H95.2243C95.7513 56.4355 96.1781 56.8625 96.1781 57.3894C96.1781 57.9163 95.7513 58.3432 95.2243 58.3432Z" fill="#6EE7B7"/>
<path d="M61.2779 90.9998H41.155C40.0167 90.9998 39.094 90.0771 39.094 88.9388V68.8159C39.094 67.6776 40.0167 66.7549 41.155 66.7549H61.2779C62.4162 66.7549 63.3389 67.6776 63.3389 68.8159V88.9388C63.3389 90.0767 62.4162 90.9998 61.2779 90.9998Z" fill="#6EE7B7"/>
<path d="M57.3548 85.5648C57.1582 85.5648 56.9621 85.4896 56.8122 85.3398L54.2594 82.787C51.8946 84.8187 48.3131 84.7168 46.0726 82.4751C43.7232 80.1261 43.7232 76.303 46.0726 73.9524C48.4224 71.6018 52.2455 71.6018 54.5952 73.9524C56.6851 76.0426 56.9158 79.298 55.2889 81.6454L57.8978 84.2547C58.1975 84.5544 58.1975 85.0401 57.8978 85.3398C57.7475 85.4896 57.5514 85.5648 57.3548 85.5648ZM50.3339 74.6887C49.4307 74.6887 48.5275 75.0323 47.8396 75.7198C46.4645 77.0953 46.4645 79.3334 47.8396 80.7081C48.506 81.3745 49.3913 81.7412 50.3339 81.7412C51.2765 81.7412 52.1618 81.3745 52.8283 80.7081C52.8535 80.6829 52.8778 80.6573 52.9022 80.6321C52.9262 80.5931 52.9546 80.5574 52.9883 80.5237C53.0045 80.5079 53.0212 80.4924 53.0386 80.479C54.1993 79.0946 54.1294 77.021 52.8287 75.7194C52.1403 75.0323 51.2371 74.6887 50.3339 74.6887Z" fill="#93C5FD"/>
<rect x="88.3296" y="10.041" width="5" height="19" fill="#1E40AF"/>
<rect x="97.3296" y="0.0410156" width="5" height="29" fill="#1E40AF"/>
<rect x="106.33" y="5.04102" width="5" height="24" fill="#1E40AF"/>
<rect x="115.33" y="6.04102" width="5" height="23" fill="#1E40AF"/>
<path d="M41.2867 35.5984V79.4025C41.2867 80.4655 40.4246 81.3276 39.3617 81.3276H2.25463C1.19165 81.3276 0.32959 80.4655 0.32959 79.4025V25.5779C0.32959 24.5149 1.19165 23.6528 2.25463 23.6528H29.3417L41.2867 35.5984Z" fill="#2563EB"/>
<path d="M41.2868 35.5984H31.2663C30.2033 35.5984 29.3413 34.7363 29.3413 33.6733V23.6528L41.2868 35.5984Z" fill="#6EE7B7"/>
<path d="M20.7144 31.7698H5.59661C5.12177 31.7698 4.73706 31.3852 4.73706 30.9103C4.73706 30.4355 5.12177 30.0508 5.59661 30.0508H20.7144C21.1893 30.0508 21.574 30.4355 21.574 30.9103C21.574 31.3852 21.1893 31.7698 20.7144 31.7698Z" fill="#F3F4F6"/>
<path d="M13.2192 35.5985H5.59661C5.12177 35.5985 4.73706 35.2137 4.73706 34.7389C4.73706 34.2641 5.12177 33.8794 5.59661 33.8794H13.2192C13.6941 33.8794 14.0788 34.2641 14.0788 34.7389C14.0783 35.2137 13.6936 35.5985 13.2192 35.5985Z" fill="#F3F4F6"/>
<path d="M14.8069 67.2971V74.2978C14.8069 74.7726 14.4222 75.1573 13.9474 75.1573H11.1124C10.6376 75.1573 10.2529 74.7726 10.2529 74.2978V67.2971C10.2529 66.8222 10.6376 66.4375 11.1124 66.4375H13.9474C14.4222 66.4375 14.8069 66.8222 14.8069 67.2971Z" fill="#6EE7B7"/>
<path d="M23.0851 60.2165V74.2975C23.0851 74.7724 22.7004 75.1571 22.2256 75.1571H19.3906C18.9158 75.1571 18.5311 74.7724 18.5311 74.2975V60.2165C18.5311 59.7417 18.9158 59.3569 19.3906 59.3569H22.2256C22.7004 59.3574 23.0851 59.7422 23.0851 60.2165Z" fill="#6EE7B7"/>
<path d="M31.3629 54.34V74.2974C31.3629 74.7722 30.9782 75.1569 30.5033 75.1569H27.6684C27.1935 75.1569 26.8088 74.7722 26.8088 74.2974V54.34C26.8088 53.8651 27.1935 53.4805 27.6684 53.4805H30.5033C30.9782 53.4805 31.3629 53.8651 31.3629 54.34Z" fill="#6EE7B7"/>
<path d="M115.192 71.7928C114.956 73.8341 114.111 75.757 112.767 77.3119C111.424 78.8668 109.643 79.9818 107.658 80.5121C105.673 81.0424 103.574 80.9635 101.634 80.2857C99.694 79.6078 98.0027 78.3623 96.7797 76.7109C95.5567 75.0595 94.8585 73.0786 94.7758 71.0253C94.693 68.972 95.2296 66.9413 96.3157 65.1968C97.4019 63.4524 98.9875 62.0748 100.867 61.2431C102.746 60.4113 104.831 60.1638 106.853 60.5326C106.942 60.5497 107.026 60.5849 107.101 60.6359C107.176 60.6869 107.239 60.7527 107.288 60.8292C107.336 60.9057 107.368 60.9913 107.382 61.0807C107.396 61.1702 107.392 61.2615 107.369 61.3491L107.167 62.1364L105.359 69.1984C105.33 69.3111 105.331 69.4293 105.362 69.5412C105.394 69.6532 105.454 69.7549 105.537 69.8363C105.62 69.9176 105.723 69.9756 105.835 70.0046C105.948 70.0335 106.066 70.0323 106.178 70.0011L113.199 68.0384L114.158 67.7703C114.244 67.7463 114.333 67.7396 114.422 67.7508C114.51 67.762 114.595 67.7908 114.671 67.8355C114.748 67.8802 114.815 67.9399 114.868 68.011C114.922 68.0821 114.96 68.1632 114.981 68.2494C115.258 69.4092 115.329 70.6084 115.192 71.7928Z" fill="#F3F4F6"/>
<path d="M115.434 64.515C115.467 64.6011 115.482 64.6932 115.477 64.7853C115.473 64.8775 115.449 64.9677 115.407 65.05C115.366 65.1323 115.307 65.205 115.236 65.2633C115.164 65.3216 115.081 65.3643 114.992 65.3885L114.331 65.5733L108.614 67.1709C108.502 67.2022 108.384 67.2034 108.271 67.1744C108.159 67.1455 108.056 67.0875 107.973 67.0061C107.889 66.9248 107.829 66.823 107.798 66.7111C107.767 66.5991 107.765 66.4809 107.794 66.3683L109.272 60.6188L109.413 60.0673C109.436 59.9796 109.476 59.8975 109.531 59.826C109.587 59.7545 109.656 59.6952 109.736 59.6519C109.815 59.6085 109.902 59.5819 109.993 59.5739C110.083 59.5659 110.173 59.5765 110.259 59.6051C111.422 60.0066 112.486 60.6525 113.379 61.4994C114.271 62.3463 114.972 63.3745 115.434 64.515Z" fill="#F3F4F6"/>
</svg>
