<svg width="390" height="524" viewBox="0 0 390 524" fill="none" xmlns="http://www.w3.org/2000/svg">
<path opacity="0.2" d="M170.229 273.475L108.123 243.864L106.435 243.02C64.8943 223.413 36.1512 181.141 36.1512 132.151V-19.7116H275.255C339.026 -19.7116 390.718 31.9816 390.718 95.7539C390.718 140.615 365.146 179.499 327.78 198.615L170.229 273.475ZM170.229 273.475L530.008 444.99V477.886H-139.992V421.368L170.229 273.475ZM170.229 226.823L119.233 202.471H119.221L119.13 202.425C94.9035 190.391 78.2507 165.389 78.2507 136.497V22.4003H260.496C302.766 22.4003 337.041 56.6761 337.041 98.9476C337.041 129.448 319.214 155.774 293.402 168.081L291.406 169.05L170.229 226.823ZM170.229 226.823L-139.992 78.9182V20.6323H530.008V55.2959L170.229 226.823ZM-62.716 520.477H484.179M-62.716 509.755H484.179M-62.716 499.033H484.179M-62.716 488.311H484.179M-62.716 477.589H484.179M-62.716 466.856H484.179M-62.716 456.134H484.179M-62.716 445.412H484.179M-62.716 434.69H484.179M-62.716 423.969H484.179M-62.716 413.247H484.179M-62.716 402.514H484.179M-62.716 391.792H484.179M-62.716 381.07H484.179M-62.716 370.348H484.179M-62.716 359.626H484.179M-62.716 348.904H484.179M-62.716 338.171H484.179M-62.716 327.449H484.179M-62.716 316.727H484.179M-62.716 306.005H484.179M-62.716 295.283H484.179M-62.716 284.561H484.179M-62.716 273.828H484.179M-62.716 263.106H484.179M-62.716 252.384H484.179M-62.716 241.663H484.179M-62.716 230.941H484.179M-62.716 220.219H484.179M-62.716 209.485H484.179M-62.716 198.764H484.179M-62.716 188.042H484.179M-62.716 177.32H484.179M-62.716 166.598H484.179M-62.716 155.876H484.179M-62.716 145.154H484.179M-62.716 134.421H484.179M-62.716 123.699H484.179M-62.716 112.977H484.179M-62.716 102.255H484.179M-62.716 91.5335H484.179M-62.716 80.8116H484.179M-62.716 70.0784H484.179M-62.716 59.3565H484.179M-62.716 48.6347H484.179M-62.716 37.9128H484.179M-62.716 27.1909H484.179M-62.716 16.469H484.179M-62.716 5.73575H484.179M-62.716 -4.98613H484.179M473.457 -15.708V531.199M462.736 -15.708V531.199M452.014 -15.708V531.199M441.292 -15.708V531.199M430.571 -15.708V531.199M419.849 -15.708V531.199M409.116 -15.708V531.199M398.394 -15.708V531.199M387.673 -15.708V531.199M376.951 -15.708V531.199M366.229 -15.708V531.199M355.508 -15.708V531.199M344.775 -15.708V531.199M334.053 -15.708V531.199M323.332 -15.708V531.199M312.61 -15.708V531.199M301.888 -15.708V531.199M291.167 -15.708V531.199M280.434 -15.708V531.199M269.712 -15.708V531.199M258.99 -15.708V531.199M248.269 -15.708V531.199M237.547 -15.708V531.199M226.825 -15.708V531.199M216.092 -15.708V531.199M205.371 -15.708V531.199M194.649 -15.708V531.199M183.927 -15.708V531.199M173.206 -15.708V531.199M162.484 -15.708V531.199M151.762 -15.708V531.199M141.029 -15.708V531.199M130.308 -15.708V531.199M119.586 -15.708V531.199M108.864 -15.708V531.199M98.1428 -15.708V531.199M87.4211 -15.708V531.199M76.6881 -15.708V531.199M65.9665 -15.708V531.199M55.2449 -15.708V531.199M44.5232 -15.708V531.199M33.8016 -15.708V531.199M23.0799 -15.708V531.199M12.3469 -15.708V531.199M1.62521 -15.708V531.199M-9.09641 -15.708V531.199M-19.8181 -15.708V531.199M-30.5397 -15.708V531.199M-41.2613 -15.708V531.199M-51.9944 -15.708V531.199M327.689 301.671L219.229 250.137L327.689 198.604C363.743 180.16 388.813 143.306 390.524 100.442C390.581 98.8791 390.627 97.3165 390.627 95.7424C390.627 31.9701 338.935 -19.723 275.164 -19.723H36.0599V132.14C36.0599 181.13 64.8031 223.401 106.344 243.009L108.032 243.853L121.217 250.137L108.032 256.422L106.344 257.266C64.8031 276.885 36.0599 319.157 36.0599 368.135V519.998H275.164C338.935 519.998 390.627 468.305 390.627 404.532C390.627 359.683 365.055 320.799 327.689 301.671ZM119.141 202.459L119.05 202.414C94.8237 190.38 78.1709 165.378 78.1709 136.486V22.3889H260.416C302.687 22.3889 336.962 56.6646 336.962 98.9362C336.962 99.4381 336.939 99.9399 336.939 100.442C336.357 130.292 318.701 155.967 293.322 168.069L291.326 169.039L170.149 226.812L119.153 202.459H119.141ZM260.416 477.886H78.1709V363.789C78.1709 334.897 94.8237 309.895 119.05 297.861L119.141 297.816L170.137 273.463L291.315 331.236L293.311 332.205C319.123 344.513 336.95 370.838 336.95 401.339C336.95 443.61 302.675 477.886 260.405 477.886H260.416ZM327.78 301.671C365.146 320.788 390.718 359.672 390.718 404.532C390.718 468.305 339.026 519.998 275.255 519.998H36.1512V368.135C36.1512 319.145 64.8943 276.874 106.435 257.266L108.123 256.422L170.229 226.812L327.78 301.671ZM119.233 297.816L170.229 273.463L291.406 331.236L293.402 332.205C319.214 344.513 337.041 370.838 337.041 401.339C337.041 443.61 302.766 477.886 260.496 477.886H78.2507V363.789C78.2507 334.897 94.9035 309.895 119.13 297.861L119.221 297.816H119.233ZM334.977 100.453C334.395 130.303 316.739 155.979 291.36 168.081L289.364 169.05L106.081 256.434L104.393 257.278C62.8526 276.896 34.1095 319.168 34.1095 368.146V421.824H76.2205V363.801C76.2205 334.909 92.8732 309.906 117.1 297.873L117.191 297.827L168.187 273.475L325.738 198.615C361.793 180.172 386.863 143.318 388.574 100.453H334.977ZM325.727 301.671V301.659C363.093 320.788 388.665 359.672 388.665 404.521C388.665 468.293 336.973 519.986 273.202 519.986H34.0981V421.802H76.2091V477.886H258.454C300.725 477.886 335 443.61 335 401.339C335 370.838 317.172 344.513 291.36 332.205L289.364 331.236L106.081 243.853L104.393 243.009C62.8526 223.401 34.1095 181.13 34.1095 132.14V-19.723H273.214C336.984 -19.723 388.677 31.9701 388.677 95.7424C388.677 97.3165 388.631 98.8792 388.574 100.442H334.977C334.977 99.9399 335 99.4381 335 98.9362C335 56.6646 300.725 22.3889 258.454 22.3889H76.2091V136.486C76.2091 165.378 92.8618 190.38 117.088 202.414L117.179 202.459L168.176 226.812L325.727 301.671ZM-62.716 -15.708H484.179V531.199H-62.716V-15.708ZM78.2622 -176V700H36.1512V-176H78.2622ZM-139.992 125.57V374.716L121.308 250.149L-139.992 125.57ZM219.16 250.149L530.008 398.339V101.947L219.16 250.149ZM-139.992 562.11H529.997V657.033H-139.992V562.11ZM-139.992 -75.203H529.997V-21.4796H-139.992V-75.203ZM294.611 371.466C294.611 442.839 236.753 500.698 165.381 500.698C94.0094 500.698 36.1512 442.839 36.1512 371.466C36.1512 300.092 94.0094 242.233 165.381 242.233C236.753 242.233 294.611 300.092 294.611 371.466ZM85.7217 495.212C85.7217 508.901 74.6249 519.998 60.9364 519.998C47.2479 519.998 36.1512 508.901 36.1512 495.212C36.1512 481.523 47.2479 470.426 60.9364 470.426C74.6249 470.426 85.7217 481.523 85.7217 495.212ZM85.7217 5.07419C85.7217 18.763 74.6249 29.86 60.9364 29.86C47.2479 29.86 36.1512 18.763 36.1512 5.07419C36.1512 -8.61462 47.2479 -19.7116 60.9364 -19.7116C74.6249 -19.7116 85.7217 -8.61462 85.7217 5.07419ZM337.053 401.099C337.053 443.507 302.675 477.886 260.268 477.886C217.86 477.886 183.483 443.507 183.483 401.099C183.483 358.691 217.86 324.312 260.268 324.312C302.675 324.312 337.053 358.691 337.053 401.099ZM231.833 365.306C231.833 407.715 197.455 442.093 155.047 442.093C112.64 442.093 78.2622 407.715 78.2622 365.306C78.2622 322.898 112.64 288.519 155.047 288.519C197.455 288.519 231.833 322.898 231.833 365.306ZM390.479 404.259C390.479 468.18 338.662 519.998 274.742 519.998C210.822 519.998 159.005 468.18 159.005 404.259C159.005 340.338 210.822 288.519 274.742 288.519C338.662 288.519 390.479 340.338 390.479 404.259ZM294.611 128.821C294.611 200.194 236.753 258.053 165.381 258.053C94.0094 258.053 36.1512 200.194 36.1512 128.821C36.1512 57.4473 94.0094 -0.412196 165.381 -0.412196C236.753 -0.412196 294.611 57.4473 294.611 128.821ZM337.053 99.1757C337.053 141.584 302.675 175.963 260.268 175.963C217.86 175.963 183.483 141.584 183.483 99.1757C183.483 56.7675 217.86 22.3889 260.268 22.3889C302.675 22.3889 337.053 56.7675 337.053 99.1757ZM231.833 134.969C231.833 177.377 197.455 211.755 155.047 211.755C112.64 211.755 78.2622 177.377 78.2622 134.969C78.2622 92.5604 112.64 58.1817 155.047 58.1817C197.455 58.1817 231.833 92.5604 231.833 134.969ZM390.479 96.0162C390.479 159.937 338.662 211.755 274.742 211.755C210.822 211.755 159.005 159.937 159.005 96.0162C159.005 32.0952 210.822 -19.723 274.742 -19.723C338.662 -19.723 390.479 32.0952 390.479 96.0162Z" stroke="#F3F4F6" stroke-width="0.5" stroke-miterlimit="10"/>
</svg>
