<svg width="134" height="121" viewBox="0 0 134 121" fill="none" xmlns="http://www.w3.org/2000/svg">
<path opacity="0.8" d="M94.633 106.817H37.798C36.7825 106.817 35.9362 105.971 35.9362 104.955C35.9362 103.94 36.7825 103.093 37.798 103.093H94.633C95.6486 103.093 96.4948 103.94 96.4948 104.955C96.4948 105.971 95.6486 106.817 94.633 106.817Z" fill="#374151"/>
<path opacity="0.8" d="M131.277 121H2.3453C1.24582 121 0.32959 120.204 0.32959 119.248C0.32959 118.293 1.24582 117.497 2.3453 117.497H131.277C132.377 117.497 133.293 118.293 133.293 119.248C133.293 120.236 132.377 121 131.277 121Z" fill="#374151"/>
<path d="M125.776 70.0889H6.62177V6.31454C6.62177 3.36954 8.99129 1 11.9363 1H120.292C123.304 1 125.776 3.47109 125.776 6.48379V70.0889Z" fill="#1F2937"/>
<path d="M8.65311 65.0114V6.11149C8.65311 4.41896 10.0071 3.06494 11.6997 3.06494H120.698C122.391 3.06494 123.745 4.41896 123.745 6.11149V65.0114C123.745 66.7039 122.391 68.0579 120.698 68.0579H11.6997C10.041 68.0579 8.65311 66.6701 8.65311 65.0114Z" fill="#111827"/>
<path d="M125.776 70.0889H6.62177V6.31453C6.62177 3.36954 8.99129 1 11.9363 1H120.292C123.304 1 125.776 3.47109 125.776 6.48379V70.0889Z" stroke="#1F2937" stroke-miterlimit="10" stroke-linecap="round" stroke-linejoin="round"/>
<path d="M119.001 63.2922V7.77734H13.3871V63.2922H119.001Z" fill="#374151"/>
<path d="M120.258 86.3371H11.9701C9.02515 86.3371 6.62177 83.9337 6.62177 80.9887V70.0889H125.776V80.8195C125.776 83.8322 123.304 86.3371 120.258 86.3371Z" fill="#6EE7B7"/>
<path d="M11.9702 83.6287C10.5146 83.6287 9.32986 82.4439 9.32986 80.9884V71.2056H123.068V80.8191C123.068 82.3762 121.815 83.6287 120.258 83.6287H11.9702Z" fill="#93C5FD"/>
<path d="M120.258 86.3371H11.9701C9.02515 86.3371 6.62177 83.9337 6.62177 80.9887V70.0889H125.776V80.8195C125.776 83.8322 123.304 86.3371 120.258 86.3371Z" stroke="#1F2937" stroke-miterlimit="10" stroke-linecap="round" stroke-linejoin="round"/>
<path d="M12.5879 23.374L12.5879 52.2778L81.6103 52.2778L81.6103 23.374L12.5879 23.374Z" fill="#FCA5A5"/>
<path d="M23.6677 29.1547L33.3987 29.1547C34.998 29.1547 36.2891 30.4458 36.2891 32.0451C36.2891 33.6445 34.998 34.9355 33.3987 34.9355L20.2956 34.9355C18.6963 34.9355 17.4052 36.2266 17.4052 37.8259C17.4052 39.4252 18.6963 40.7163 20.2956 40.7163L33.3987 40.7163C34.998 40.7163 36.2891 42.0073 36.2891 43.6067C36.2891 45.206 34.998 46.4971 33.3987 46.4971L28.9668 46.4971C27.3674 46.4971 26.0764 47.7881 26.0764 49.3874C26.0764 50.9868 27.3674 52.2778 28.9668 52.2778L36.2891 52.2778L38.4087 52.2778L79.298 52.2778L79.298 23.374L38.4087 23.374L36.2891 23.374L23.6677 23.374C22.0684 23.374 20.7773 24.665 20.7773 26.2644C20.7773 27.8444 22.0684 29.1547 23.6677 29.1547Z" fill="#059669"/>
<path d="M25.98 29.1547L35.7109 29.1547C37.3103 29.1547 38.6013 30.4458 38.6013 32.0451C38.6013 33.6445 37.3103 34.9355 35.7109 34.9355L22.6079 34.9355C21.0085 34.9355 19.7175 36.2266 19.7175 37.8259C19.7175 39.4252 21.0085 40.7163 22.6079 40.7163L35.7109 40.7163C37.3103 40.7163 38.6013 42.0073 38.6013 43.6067C38.6013 45.206 37.3103 46.4971 35.7109 46.4971L31.279 46.4971C29.6797 46.4971 28.3886 47.7881 28.3886 49.3874C28.3886 50.9868 29.6797 52.2778 31.279 52.2778L38.6013 52.2778L40.7209 52.2778L81.6103 52.2778L81.6103 23.374L40.7209 23.374L38.6013 23.374L25.98 23.374C24.3806 23.374 23.0896 24.665 23.0896 26.2644C23.0896 27.8444 24.3806 29.1547 25.98 29.1547Z" fill="#EF4444"/>
<path d="M44.4399 29.1547L58.1403 29.1547C59.7397 29.1547 61.0307 30.4458 61.0307 32.0451C61.0307 33.6445 59.7397 34.9355 58.1403 34.9355L51.0492 34.9355C49.4499 34.9355 48.1588 36.2266 48.1588 37.8259C48.1588 39.4252 49.4499 40.7163 51.0492 40.7163L58.1403 40.7163C59.7397 40.7163 61.0307 42.0073 61.0307 43.6067C61.0307 45.206 59.7397 46.4971 58.1403 46.4971L48.4093 46.4971C46.81 46.4971 45.519 47.7881 45.519 49.3874C45.519 50.9868 46.81 52.2778 48.4093 52.2778L61.0307 52.2778L63.1503 52.2778L80.0109 52.2778L80.0109 23.374L63.1503 23.374L61.0307 23.374L44.4399 23.374C42.8405 23.374 41.5495 24.665 41.5495 26.2644C41.5495 27.8444 42.8405 29.1547 44.4399 29.1547Z" fill="#EF4444"/>
<path d="M25.98 29.1547L35.7109 29.1547C37.3103 29.1547 38.6013 30.4458 38.6013 32.0451C38.6013 33.6445 37.3103 34.9355 35.7109 34.9355L22.6079 34.9355C21.0085 34.9355 19.7175 36.2266 19.7175 37.8259C19.7175 39.4252 21.0085 40.7163 22.6079 40.7163L35.7109 40.7163C37.3103 40.7163 38.6013 42.0073 38.6013 43.6067C38.6013 45.206 37.3103 46.4971 35.7109 46.4971L31.279 46.4971C29.6797 46.4971 28.3886 47.7881 28.3886 49.3874C28.3886 50.9868 29.6797 52.2778 31.279 52.2778L38.6013 52.2778L40.7209 52.2778L81.6103 52.2778L81.6103 23.374L40.7209 23.374L38.6013 23.374L25.98 23.374C24.3806 23.374 23.0896 24.665 23.0896 26.2644C23.0896 27.8444 24.3806 29.1547 25.98 29.1547Z" stroke="#111827" stroke-miterlimit="10" stroke-linecap="round" stroke-linejoin="round"/>
<path d="M46.9449 29.1547L60.6453 29.1547C62.2447 29.1547 63.5357 30.4458 63.5357 32.0451C63.5357 33.6445 62.2447 34.9355 60.6453 34.9355L53.5542 34.9355C51.9549 34.9355 50.6639 36.2266 50.6639 37.8259C50.6639 39.4252 51.9549 40.7163 53.5542 40.7163L60.6453 40.7163C62.2447 40.7163 63.5357 42.0073 63.5357 43.6067C63.5357 45.206 62.2447 46.4971 60.6453 46.4971L50.9144 46.4971C49.315 46.4971 48.024 47.7881 48.024 49.3874C48.024 50.9868 49.315 52.2778 50.9144 52.2778L63.5357 52.2778L65.6553 52.2778L82.5159 52.2778L82.5159 23.374L65.6553 23.374L63.5357 23.374L46.9449 23.374C45.3455 23.374 44.0545 24.665 44.0545 26.2644C44.0545 27.8444 45.3455 29.1547 46.9449 29.1547Z" fill="#34D399"/>
<path opacity="0.14" d="M74.6348 23.374L74.6348 52.2778L81.6103 52.2778L81.6103 23.374L74.6348 23.374Z" fill="#059669"/>
<path d="M46.9449 29.1547L60.6453 29.1547C62.2447 29.1547 63.5357 30.4458 63.5357 32.0451C63.5357 33.6445 62.2447 34.9355 60.6453 34.9355L53.5542 34.9355C51.9549 34.9355 50.6639 36.2266 50.6639 37.8259C50.6639 39.4252 51.9549 40.7163 53.5542 40.7163L60.6453 40.7163C62.2447 40.7163 63.5357 42.0073 63.5357 43.6067C63.5357 45.206 62.2447 46.4971 60.6453 46.4971L50.9144 46.4971C49.315 46.4971 48.024 47.7881 48.024 49.3874C48.024 50.9868 49.315 52.2778 50.9144 52.2778L63.5357 52.2778L65.6553 52.2778L82.5159 52.2778L82.5159 23.374L65.6553 23.374L63.5357 23.374L46.9449 23.374C45.3455 23.374 44.0545 24.665 44.0545 26.2644C44.0545 27.8444 45.3455 29.1547 46.9449 29.1547Z" stroke="#111827" stroke-miterlimit="10" stroke-linecap="round" stroke-linejoin="round"/>
<path d="M12.5879 23.374L12.5879 52.2778L81.6103 52.2778L81.6103 23.374L12.5879 23.374Z" stroke="#111827" stroke-miterlimit="10" stroke-linecap="round" stroke-linejoin="round"/>
<path d="M111.131 38.269L106.949 38.269C104.155 38.269 101.882 35.9953 101.882 33.2012L101.882 18.2868C101.882 15.4928 99.6078 13.219 96.8138 13.219L92.4397 13.219C89.6456 13.219 87.3719 15.4928 87.3719 18.2868L87.3719 22.8536" stroke="#111827" stroke-miterlimit="10" stroke-linecap="round" stroke-linejoin="round"/>
<path d="M95.0988 24.1824L95.0988 51.6218C95.0988 53.6837 93.4224 55.3408 91.3798 55.3408L83.4216 55.3408C81.3598 55.3408 79.7027 53.6644 79.7027 51.6218L79.7027 24.2017C79.7027 22.1399 81.3791 20.4827 83.4216 20.4827L91.3798 20.4827C93.4224 20.4635 95.0988 22.1399 95.0988 24.1824Z" fill="#34D399"/>
<path opacity="0.05" d="M91.4762 25.6276L91.4762 50.1959C91.4762 50.8511 90.9366 51.3906 90.2815 51.3906C89.6263 51.3906 89.0868 50.8511 89.0868 50.1959L89.0868 25.6276C89.0868 24.9725 89.6263 24.4329 90.2815 24.4329C90.9366 24.4329 91.4762 24.9725 91.4762 25.6276Z" fill="#059669"/>
<path opacity="0.05" d="M87.9884 25.0305L87.9884 50.7742C87.9884 51.1018 87.7186 51.3716 87.391 51.3716C87.0635 51.3716 86.7937 51.1018 86.7937 50.7742L86.7937 25.0113C86.7937 24.6837 87.0635 24.4139 87.391 24.4139C87.7379 24.4332 87.9884 24.7029 87.9884 25.0305Z" fill="#059669"/>
<path opacity="0.14" d="M79.6834 24.1829L79.6834 24.3948C80.1844 24.1443 80.7432 23.9902 81.3598 23.9902L90.2429 23.9902C91.7845 23.9902 93.0562 25.2427 93.0562 26.8035L93.0562 50.5817C93.0562 51.7186 93.9811 52.6436 95.118 52.6436L95.118 24.2021C95.118 22.1403 93.4416 20.4832 91.3991 20.4832L83.4409 20.4832C81.3405 20.4639 79.6834 22.1403 79.6834 24.1829Z" fill="#059669"/>
<path opacity="0.15" d="M82.1499 22.7761L82.1499 53.0288C82.1499 53.5876 81.7067 54.0308 81.1479 54.0308C80.5891 54.0308 80.1459 53.5876 80.1459 53.0288L80.1459 22.7761C80.1459 22.2172 80.5891 21.7741 81.1479 21.7741C81.7067 21.7741 82.1499 22.2172 82.1499 22.7761Z" fill="#34D399"/>
<path d="M95.0988 24.1824L95.0988 51.6218C95.0988 53.6837 93.4224 55.3408 91.3798 55.3408L83.4216 55.3408C81.3598 55.3408 79.7027 53.6644 79.7027 51.6218L79.7027 24.2017C79.7027 22.1399 81.3791 20.4827 83.4216 20.4827L91.3798 20.4827C93.4224 20.4635 95.0988 22.1399 95.0988 24.1824Z" stroke="#111827" stroke-miterlimit="10" stroke-linecap="round" stroke-linejoin="round"/>
<path d="M133.464 38.2682C133.464 40.5227 131.633 42.3726 129.36 42.3726L116.179 42.3726C113.925 42.3726 112.075 40.542 112.075 38.2682C112.075 36.0137 113.906 34.1639 116.179 34.1639L129.36 34.1639C131.633 34.1831 133.464 36.0137 133.464 38.2682Z" fill="#FCA5A5"/>
<path opacity="0.21" d="M130.997 41.0425C130.997 41.6206 130.535 42.083 129.957 42.083L115.177 42.083C114.599 42.083 114.137 41.6206 114.137 41.0425C114.137 40.4644 114.599 40.0019 115.177 40.0019L129.957 40.0019C130.535 40.0019 130.997 40.4644 130.997 41.0425Z" fill="#FCA5A5"/>
<path d="M112.229 37.227C112.942 36.649 113.848 36.2828 114.83 36.2828L128.011 36.2828C130.265 36.2828 132.115 38.1134 132.115 40.3872C132.115 40.7533 132.057 41.1002 131.98 41.4277C132.886 40.6762 133.464 39.5393 133.464 38.2676C133.464 36.0131 131.633 34.1632 129.359 34.1632L116.179 34.1632C114.291 34.1825 112.692 35.4735 112.229 37.227Z" fill="#EF4444"/>
<path d="M133.464 38.2682C133.464 40.5227 131.633 42.3726 129.36 42.3726L116.179 42.3726C113.925 42.3726 112.075 40.542 112.075 38.2682C112.075 36.0137 113.906 34.1639 116.179 34.1639L129.36 34.1639C131.633 34.1831 133.464 36.0137 133.464 38.2682Z" stroke="#111827" stroke-miterlimit="10" stroke-linecap="round" stroke-linejoin="round"/>
<path d="M113.058 35.9366L113.058 40.6191C113.058 41.5825 112.268 42.3726 111.304 42.3726C110.341 42.3726 109.551 41.5825 109.551 40.6191L109.551 35.9366C109.551 34.9732 110.341 34.1831 111.304 34.1831C112.268 34.1831 113.058 34.9732 113.058 35.9366Z" fill="#EF4444"/>
<path opacity="0.21" d="M112.48 41.1779C112.48 40.5181 111.945 39.9832 111.285 39.9832C110.625 39.9832 110.09 40.5181 110.09 41.1779C110.09 41.8377 110.625 42.3726 111.285 42.3726C111.945 42.3726 112.48 41.8377 112.48 41.1779Z" fill="#FCA5A5"/>
<path d="M109.531 35.9369L109.531 38.6924C109.531 37.7289 110.321 36.9389 111.285 36.9389C112.248 36.9389 113.038 37.7289 113.038 38.6924L113.038 35.9369C113.038 34.9734 112.248 34.1834 111.285 34.1834C110.321 34.1834 109.531 34.9734 109.531 35.9369Z" fill="#34D399"/>
<path d="M113.058 35.9366L113.058 40.6191C113.058 41.5825 112.268 42.3726 111.304 42.3726C110.341 42.3726 109.551 41.5825 109.551 40.6191L109.551 35.9366C109.551 34.9732 110.341 34.1831 111.304 34.1831C112.268 34.1831 113.058 34.9732 113.058 35.9366Z" stroke="#111827" stroke-miterlimit="10" stroke-linecap="round" stroke-linejoin="round"/>
<path d="M90.2814 20.4634L90.2814 20.2321C90.2814 19.4999 89.6841 18.9218 88.9711 18.9218L85.8109 18.9218C85.0787 18.9218 84.5006 19.5192 84.5006 20.2321L84.5006 20.4634L90.2814 20.4634Z" stroke="#111827" stroke-miterlimit="10" stroke-linecap="round" stroke-linejoin="round"/>
<path d="M90.2814 20.4634L90.2814 20.2321C90.2814 19.4999 89.6841 18.9218 88.9711 18.9218L85.8109 18.9218C85.0787 18.9218 84.5006 19.5192 84.5006 20.2321L84.5006 20.4634L90.2814 20.4634Z" fill="#111827"/>
<path d="M46.2705 37.7859L43.1874 39.867C41.5688 40.9654 39.295 39.9441 39.1602 37.9786C39.1602 37.9208 39.1602 37.8437 39.1602 37.7859C39.1602 37.7281 39.1602 37.651 39.1602 37.5932C39.295 35.647 41.5495 34.6258 43.1874 35.7049L46.2705 37.7859Z" fill="#EF4444"/>
<path d="M47.6193 37.7859L44.5362 39.867C42.9176 40.9654 40.6439 39.9441 40.509 37.9786C40.509 37.9208 40.509 37.8437 40.509 37.7859C40.509 37.7281 40.509 37.651 40.509 37.5932C40.6439 35.647 42.8984 34.6258 44.5362 35.7049L47.6193 37.7859Z" fill="#34D399"/>
<path d="M47.6193 37.7859L44.5362 39.867C42.9176 40.9654 40.6439 39.9441 40.509 37.9786C40.509 37.9208 40.509 37.8437 40.509 37.7859C40.509 37.7281 40.509 37.651 40.509 37.5932C40.6439 35.647 42.8984 34.6258 44.5362 35.7049L47.6193 37.7859Z" stroke="#111827" stroke-miterlimit="10" stroke-linecap="round" stroke-linejoin="round"/>
<path opacity="0.4" d="M83.4987 50.312L83.4987 34.1837" stroke="#F3F4F6" stroke-miterlimit="10" stroke-linecap="round" stroke-linejoin="round"/>
<path opacity="0.4" d="M83.4987 30.8882L83.4987 28.5759" stroke="#F3F4F6" stroke-miterlimit="10" stroke-linecap="round" stroke-linejoin="round"/>
<path d="M130.149 38.269C130.149 37.5561 129.572 36.978 128.858 36.978C128.145 36.978 127.567 37.5561 127.567 38.269C127.567 38.982 128.145 39.5601 128.858 39.5601C129.572 39.5601 130.149 38.982 130.149 38.269Z" fill="#374151"/>
<path d="M130.149 38.269C130.149 37.5561 129.572 36.978 128.858 36.978C128.145 36.978 127.567 37.5561 127.567 38.269C127.567 38.982 128.145 39.5601 128.858 39.5601C129.572 39.5601 130.149 38.982 130.149 38.269Z" stroke="#111827" stroke-miterlimit="10" stroke-linecap="round" stroke-linejoin="round"/>
</svg>
