<svg width="358" height="272" viewBox="0 0 358 272" fill="none" xmlns="http://www.w3.org/2000/svg">
<path opacity="0.2" d="M158.96 145.169L109.319 121.508L107.969 120.833C74.7659 105.165 51.7914 71.3867 51.7914 32.2396V-89.112H242.908C293.88 -89.112 335.198 -47.8047 335.198 3.15493C335.198 39.0026 314.758 70.0742 284.891 85.3502L158.96 145.169ZM158.96 145.169L446.533 282.225V308.512H-89V263.349L158.96 145.169ZM158.96 107.891L118.199 88.4309H118.189L118.116 88.3945C98.7523 78.7786 85.4417 58.7994 85.4417 35.7122V-55.461H231.111C264.898 -55.461 292.294 -28.0716 292.294 5.70699C292.294 30.0794 278.044 51.1158 257.413 60.9505L255.817 61.7252L158.96 107.891ZM158.96 107.891L-89 -10.2982V-56.8737H446.533V-29.1745L158.96 107.891ZM-27.2334 342.546H409.901M-27.2334 333.978H409.901M-27.2334 325.41H409.901M-27.2334 316.842H409.901M-27.2334 308.275H409.901M-27.2334 299.698H409.901M-27.2334 291.13H409.901M-27.2334 282.562H409.901M-27.2334 273.995H409.901M-27.2334 265.427H409.901M-27.2334 256.859H409.901M-27.2334 248.282H409.901M-27.2334 239.715H409.901M-27.2334 231.147H409.901M-27.2334 222.579H409.901M-27.2334 214.012H409.901M-27.2334 205.444H409.901M-27.2334 196.867H409.901M-27.2334 188.299H409.901M-27.2334 179.732H409.901M-27.2334 171.164H409.901M-27.2334 162.596H409.901M-27.2334 154.029H409.901M-27.2334 145.452H409.901M-27.2334 136.884H409.901M-27.2334 128.316H409.901M-27.2334 119.749H409.901M-27.2334 111.181H409.901M-27.2334 102.613H409.901M-27.2334 94.0364H409.901M-27.2334 85.4687H409.901M-27.2334 76.901H409.901M-27.2334 68.3333H409.901M-27.2334 59.7656H409.901M-27.2334 51.1979H409.901M-27.2334 42.6302H409.901M-27.2334 34.0533H409.901M-27.2334 25.4856H409.901M-27.2334 16.9179H409.901M-27.2334 8.35023H409.901M-27.2334 -0.21751H409.901M-27.2334 -8.78523H409.901M-27.2334 -17.362H409.901M-27.2334 -25.9297H409.901M-27.2334 -34.4974H409.901M-27.2334 -43.0651H409.901M-27.2334 -51.6329H409.901M-27.2334 -60.2006H409.901M-27.2334 -68.7774H409.901M-27.2334 -77.3451H409.901M401.331 -85.9128V351.113M392.761 -85.9128V351.113M384.192 -85.9128V351.113M375.622 -85.9128V351.113M367.052 -85.9128V351.113M358.482 -85.9128V351.113M349.903 -85.9128V351.113M341.333 -85.9128V351.113M332.763 -85.9128V351.113M324.194 -85.9128V351.113M315.624 -85.9128V351.113M307.054 -85.9128V351.113M298.475 -85.9128V351.113M289.905 -85.9128V351.113M281.335 -85.9128V351.113M272.766 -85.9128V351.113M264.196 -85.9128V351.113M255.626 -85.9128V351.113M247.047 -85.9128V351.113M238.477 -85.9128V351.113M229.907 -85.9128V351.113M221.337 -85.9128V351.113M212.768 -85.9128V351.113M204.198 -85.9128V351.113M195.619 -85.9128V351.113M187.049 -85.9128V351.113M178.479 -85.9128V351.113M169.909 -85.9128V351.113M161.339 -85.9128V351.113M152.77 -85.9128V351.113M144.2 -85.9128V351.113M135.621 -85.9128V351.113M127.051 -85.9128V351.113M118.481 -85.9128V351.113M109.911 -85.9128V351.113M101.341 -85.9128V351.113M92.7716 -85.9128V351.113M84.1927 -85.9128V351.113M75.6229 -85.9128V351.113M67.0531 -85.9128V351.113M58.4832 -85.9128V351.113M49.9134 -85.9128V351.113M41.3435 -85.9128V351.113M32.7646 -85.9128V351.113M24.1947 -85.9128V351.113M15.6249 -85.9128V351.113M7.05508 -85.9128V351.113M-1.51474 -85.9128V351.113M-10.0846 -85.9128V351.113M-18.6635 -85.9128V351.113M284.818 167.7L198.126 126.521L284.818 85.3411C313.636 70.6028 333.675 41.1536 335.043 6.90098C335.088 5.65228 335.125 4.4036 335.125 3.14578C335.125 -47.8138 293.807 -89.1211 242.835 -89.1211H51.7185V32.2304C51.7185 71.3775 74.6929 105.156 107.896 120.824L109.246 121.499L119.785 126.521L109.246 131.543L107.896 132.217C74.6929 147.894 51.7185 181.673 51.7185 220.811V342.163H242.835C293.807 342.163 335.125 300.855 335.125 249.896C335.125 214.057 314.685 182.986 284.818 167.7ZM118.126 88.4218L118.053 88.3854C98.6885 78.7695 85.3779 58.7903 85.3779 35.7031V-55.4701H231.047C264.834 -55.4701 292.23 -28.0808 292.23 5.69788C292.23 6.09892 292.212 6.49993 292.212 6.90098C291.747 30.7538 277.634 51.2708 257.349 60.9413L255.754 61.7161L158.896 107.881L118.135 88.4218H118.126ZM231.047 308.512H85.3779V217.338C85.3779 194.251 98.6885 174.272 118.053 164.656L118.126 164.62L158.887 145.16L255.744 191.325L257.34 192.1C277.971 201.935 292.221 222.971 292.221 247.344C292.221 281.122 264.825 308.512 231.038 308.512H231.047ZM284.891 167.7C314.758 182.976 335.198 214.048 335.198 249.896C335.198 300.855 293.88 342.163 242.908 342.163H51.7914V220.811C51.7914 181.664 74.7659 147.885 107.969 132.217L109.319 131.543L158.96 107.881L284.891 167.7ZM118.199 164.62L158.96 145.16L255.817 191.325L257.413 192.1C278.044 201.935 292.294 222.971 292.294 247.344C292.294 281.122 264.898 308.512 231.111 308.512H85.4417V217.338C85.4417 194.251 98.7523 174.272 118.116 164.656L118.189 164.62H118.199ZM290.644 6.91012C290.179 30.763 276.066 51.2799 255.781 60.9505L254.185 61.7252L107.687 131.552L106.338 132.227C73.134 147.904 50.1595 181.682 50.1595 220.82V263.713H83.8189V217.348C83.8189 194.26 97.1295 174.281 116.494 164.665L116.567 164.629L157.328 145.169L283.259 85.3502C312.077 70.6119 332.116 41.1627 333.484 6.91012H290.644ZM283.25 167.7V167.691C313.117 182.977 333.557 214.048 333.557 249.887C333.557 300.846 292.239 342.154 241.267 342.154H50.1504V263.695H83.8098V308.512H229.479C263.266 308.512 290.662 281.122 290.662 247.344C290.662 222.971 276.412 201.935 255.781 192.1L254.185 191.325L107.687 121.499L106.338 120.824C73.134 105.156 50.1595 71.3776 50.1595 32.2304V-89.1211H241.276C292.248 -89.1211 333.566 -47.8138 333.566 3.14578C333.566 4.4036 333.529 5.6523 333.484 6.90099H290.644C290.644 6.49995 290.662 6.09892 290.662 5.69788C290.662 -28.0808 263.266 -55.4701 229.479 -55.4701H83.8098V35.7031C83.8098 58.7903 97.1204 78.7695 116.485 88.3854L116.558 88.4218L157.319 107.881L283.25 167.7ZM-27.2334 -85.9128H409.901V351.113H-27.2334V-85.9128ZM85.4508 -214V486H51.7915V-214H85.4508ZM-89 26.9804V226.07L119.858 126.53L-89 26.9804ZM198.071 126.53L446.533 244.947V8.10414L198.071 126.53ZM-89 375.814H446.524V451.665H-89V375.814ZM-89 -133.454H446.524V-90.5248H-89V-133.454ZM258.379 223.473C258.379 280.506 212.133 326.741 155.085 326.741C98.0377 326.741 51.7914 280.506 51.7914 223.473C51.7914 166.439 98.0377 120.204 155.085 120.204C212.133 120.204 258.379 166.439 258.379 223.473ZM91.4133 322.357C91.4133 333.295 82.5436 342.163 71.6023 342.163C60.6611 342.163 51.7914 333.295 51.7914 322.357C51.7914 311.418 60.6611 302.551 71.6023 302.551C82.5436 302.551 91.4133 311.418 91.4133 322.357ZM91.4133 -69.306C91.4133 -58.3675 82.5436 -49.5 71.6023 -49.5C60.6611 -49.5 51.7914 -58.3675 51.7914 -69.306C51.7914 -80.2446 60.6611 -89.112 71.6023 -89.112C82.5436 -89.112 91.4133 -80.2446 91.4133 -69.306ZM292.303 247.152C292.303 281.04 264.825 308.512 230.928 308.512C197.032 308.512 169.554 281.04 169.554 247.152C169.554 213.264 197.032 185.793 230.928 185.793C264.825 185.793 292.303 213.264 292.303 247.152ZM208.2 218.551C208.2 252.439 180.722 279.91 146.825 279.91C112.929 279.91 85.4508 252.439 85.4508 218.551C85.4508 184.663 112.929 157.191 146.825 157.191C180.722 157.191 208.2 184.663 208.2 218.551ZM335.006 249.677C335.006 300.755 293.589 342.163 242.498 342.163C191.407 342.163 149.989 300.755 149.989 249.677C149.989 198.599 191.407 157.191 242.498 157.191C293.589 157.191 335.006 198.599 335.006 249.677ZM258.379 29.5781C258.379 86.6115 212.133 132.846 155.085 132.846C98.0377 132.846 51.7914 86.6115 51.7914 29.5781C51.7914 -27.4554 98.0377 -73.6901 155.085 -73.6901C212.133 -73.6901 258.379 -27.4554 258.379 29.5781ZM292.303 5.88927C292.303 39.7771 264.825 67.2486 230.928 67.2486C197.032 67.2486 169.554 39.7771 169.554 5.88927C169.554 -27.9986 197.032 -55.4701 230.928 -55.4701C264.825 -55.4701 292.303 -27.9986 292.303 5.88927ZM208.2 34.4909C208.2 68.3787 180.722 95.8502 146.825 95.8502C112.929 95.8502 85.4508 68.3787 85.4508 34.4909C85.4508 0.603021 112.929 -26.8685 146.825 -26.8685C180.722 -26.8685 208.2 0.603021 208.2 34.4909ZM335.006 3.36451C335.006 54.4429 293.589 95.8502 242.498 95.8502C191.407 95.8502 149.989 54.4429 149.989 3.36451C149.989 -47.7139 191.407 -89.1211 242.498 -89.1211C293.589 -89.1211 335.006 -47.7139 335.006 3.36451Z" stroke="#1F2937" stroke-width="0.5" stroke-miterlimit="10"/>
</svg>
