<svg width="58" height="59" viewBox="0 0 58 59" fill="none" xmlns="http://www.w3.org/2000/svg">
<path d="M49.0001 2H56.0001C56.5524 2 57.0001 2.44772 57.0001 3V9" stroke="#10B981" stroke-width="1.5" stroke-linecap="round"/>
<path d="M1.00012 9.5L1.00012 2.5C1.00012 1.94772 1.44784 1.5 2.00012 1.5L8.00012 1.5" stroke="#10B981" stroke-width="1.5" stroke-linecap="round"/>
<path d="M8.99988 58L1.99988 58C1.44759 58 0.999878 57.5523 0.999878 57L0.999879 51" stroke="#10B981" stroke-width="1.5" stroke-linecap="round"/>
<path d="M56.9999 50L56.9999 57C56.9999 57.5523 56.5522 58 55.9999 58L49.9999 58" stroke="#10B981" stroke-width="1.5" stroke-linecap="round"/>
<path d="M11.9424 26.7695H47.92V46.3576C47.92 48.093 46.5129 49.5004 44.7771 49.5004H15.0852C13.3495 49.5004 11.9424 48.0933 11.9424 46.3576V26.7695Z" stroke="#10B981" stroke-width="3" stroke-linecap="round" stroke-linejoin="round"/>
<path d="M11.9376 26.7691L46.6892 17.4575L45.1813 11.8302C44.7322 10.1536 43.009 9.15863 41.3323 9.60787L12.6521 17.2927C10.9755 17.7419 9.98053 19.4653 10.4298 21.1419L11.9376 26.7691Z" fill="#F3F4F6" stroke="#10B981" stroke-width="3" stroke-linecap="round" stroke-linejoin="round"/>
<path d="M20.1893 41.5117H24.2097" stroke="#10B981" stroke-width="3" stroke-linecap="round" stroke-linejoin="round"/>
<path d="M21.4723 24.2143L23.4826 14.3906" stroke="#10B981" stroke-width="3" stroke-linecap="round" stroke-linejoin="round"/>
<path d="M32.8229 21.1732L34.8331 11.3496" stroke="#10B981" stroke-width="3" stroke-linecap="round" stroke-linejoin="round"/>
</svg>
