<svg width="58" height="59" viewBox="0 0 58 59" fill="none" xmlns="http://www.w3.org/2000/svg">
<path d="M49.0001 1.5H56.0001C56.5524 1.5 57.0001 1.94772 57.0001 2.5V8.5" stroke="#10B981" stroke-width="1.5" stroke-linecap="round"/>
<path d="M1.00012 9L1.00012 2C1.00012 1.44772 1.44784 1 2.00012 1L8.00012 1" stroke="#10B981" stroke-width="1.5" stroke-linecap="round"/>
<path d="M8.99988 57.5L1.99988 57.5C1.44759 57.5 0.999878 57.0523 0.999878 56.5L0.999879 50.5" stroke="#10B981" stroke-width="1.5" stroke-linecap="round"/>
<path d="M56.9999 49.5L56.9999 56.5C56.9999 57.0523 56.5522 57.5 55.9999 57.5L49.9999 57.5" stroke="#10B981" stroke-width="1.5" stroke-linecap="round"/>
<path d="M49.2591 30.5873C48.9554 34.4042 47.5625 38.0538 45.2455 41.1023C42.9286 44.1509 39.7855 46.4703 36.1891 47.7848C32.5929 49.0995 28.6949 49.3543 24.9581 48.5189C21.2214 47.6832 17.803 45.7928 15.1091 43.0715C12.4153 40.3506 10.5591 36.9133 9.7612 33.1684C8.9633 29.4234 9.25719 25.5281 10.608 21.9453C11.9587 18.3625 14.3096 15.2427 17.3813 12.9566C20.4529 10.6705 24.1162 9.3142 27.9361 9.04883" stroke="#10B981" stroke-width="3" stroke-linecap="round" stroke-linejoin="round"/>
<path d="M37.9069 32.3545C37.3512 33.7846 36.4479 35.0537 35.2785 36.047C34.1091 37.0402 32.7106 37.7264 31.2094 38.0433C29.7082 38.3601 28.1517 38.298 26.6806 37.8621C25.2095 37.4263 23.8702 36.6306 22.7839 35.5471C21.6977 34.4636 20.8985 33.1264 20.4589 31.6565C20.0193 30.1865 19.953 28.6301 20.2661 27.1281C20.5792 25.6261 21.2617 24.2258 22.2519 23.0539C23.2422 21.882 24.5089 20.9753 25.9376 20.416" stroke="#10B981" stroke-width="3" stroke-linecap="round" stroke-linejoin="round"/>
<path d="M29.3221 29.0009L37.0145 21.3086" stroke="#10B981" stroke-width="3" stroke-linecap="round" stroke-linejoin="round"/>
<path d="M43.1683 22.8462L37.0144 21.3077L35.476 15.1538L41.6298 9L43.1683 15.1538L49.3221 16.6923L43.1683 22.8462Z" fill="#F3F4F6" stroke="#10B981" stroke-width="3" stroke-linecap="round" stroke-linejoin="round"/>
</svg>
