<svg width="58" height="59" viewBox="0 0 58 59" fill="none" xmlns="http://www.w3.org/2000/svg">
<rect x="10.9999" y="13.5" width="10.6667" height="10.6667" fill="#10B981"/>
<rect x="10.9999" y="34.833" width="10.6667" height="10.6667" fill="#10B981"/>
<rect x="10.9999" y="24.167" width="10.6667" height="10.6667" fill="#1F2937"/>
<rect x="21.6665" y="34.833" width="10.6667" height="10.6667" fill="#1F2937"/>
<rect x="21.6665" y="13.5" width="10.6667" height="10.6667" fill="#1F2937"/>
<rect x="21.6665" y="24.167" width="10.6667" height="10.6667" fill="#10B981"/>
<rect x="32.3333" y="34.833" width="10.6667" height="10.6667" fill="#10B981"/>
<rect x="32.3333" y="13.5" width="10.6667" height="10.6667" fill="#10B981"/>
<rect x="32.3333" y="24.167" width="10.6667" height="10.6667" fill="#1F2937"/>
<path d="M46.5604 23.2168L39.8938 15.2168L32.5604 23.8835L35.8938 27.2168L37.2271 28.5501H42.5604L43.2271 27.2168L46.5604 23.2168Z" fill="#1F2937"/>
<path d="M36.3431 31.0291L36.3438 31.0261L36.8514 28.7852H42.6776L43.1844 31.0224C43.2736 31.4375 43.1629 31.7748 42.9401 32.0163C42.7091 32.2667 42.3047 32.4675 41.7314 32.4675H37.7977C36.7489 32.4675 36.1973 31.6609 36.3431 31.0291Z" stroke="#F3F4F6" stroke-width="1.5" stroke-linecap="round" stroke-linejoin="round"/>
<mask id="path-12-inside-1_205_3637" fill="white">
<path d="M43.2765 28.0194L45.977 25.6154C47.4912 24.273 47.5536 23.3363 46.3517 21.8222L41.5907 15.7813C40.5917 14.5169 38.9526 14.5169 37.9536 15.7813L33.1926 21.8222C31.9907 23.3363 31.9907 24.3198 33.5673 25.6154L36.2678 28.0194"/>
</mask>
<path d="M42.2792 26.899C41.6604 27.4498 41.6053 28.398 42.1561 29.0168C42.707 29.6355 43.6551 29.6906 44.2739 29.1398L42.2792 26.899ZM45.977 25.6154L44.9819 24.493L44.9797 24.495L45.977 25.6154ZM46.3517 21.8222L45.1736 22.7507L45.1768 22.7548L46.3517 21.8222ZM41.5907 15.7813L42.7688 14.8528L42.7676 14.8514L41.5907 15.7813ZM37.9536 15.7813L36.7767 14.8514L36.7755 14.8528L37.9536 15.7813ZM33.1926 21.8222L34.3675 22.7548L34.3707 22.7507L33.1926 21.8222ZM33.5673 25.6154L34.5646 24.495C34.5499 24.4819 34.5349 24.4691 34.5196 24.4565L33.5673 25.6154ZM35.2704 29.1398C35.8892 29.6906 36.8373 29.6355 37.3882 29.0168C37.939 28.398 37.8839 27.4498 37.2651 26.899L35.2704 29.1398ZM44.2739 29.1398L46.9744 26.7358L44.9797 24.495L42.2792 26.899L44.2739 29.1398ZM46.9721 26.7378C47.795 26.0083 48.5669 25.1077 48.6765 23.9212C48.7868 22.7273 48.1836 21.7174 47.5265 20.8896L45.1768 22.7548C45.4338 23.0785 45.5693 23.3056 45.637 23.4617C45.6689 23.5352 45.6811 23.5829 45.686 23.6087C45.6904 23.6327 45.6895 23.6428 45.6892 23.6452C45.689 23.6477 45.6879 23.66 45.6776 23.6868C45.6666 23.7155 45.6433 23.7652 45.595 23.8378C45.4931 23.9906 45.3079 24.204 44.9819 24.493L46.9721 26.7378ZM47.5298 20.8937L42.7688 14.8528L40.4126 16.7098L45.1736 22.7507L47.5298 20.8937ZM42.7676 14.8514C42.0128 13.8961 40.9356 13.333 39.7721 13.333C38.6087 13.333 37.5315 13.8961 36.7767 14.8514L39.1306 16.7112C39.3748 16.4021 39.6166 16.333 39.7721 16.333C39.9277 16.333 40.1695 16.4021 40.4137 16.7112L42.7676 14.8514ZM36.7755 14.8528L32.0145 20.8937L34.3707 22.7507L39.1317 16.7098L36.7755 14.8528ZM32.0178 20.8896C31.3678 21.7084 30.7489 22.7238 30.8426 23.918C30.9384 25.1401 31.7349 26.0511 32.6149 26.7743L34.5196 24.4565C34.1887 24.1846 34.0087 23.9833 33.9145 23.8449C33.87 23.7795 33.8503 23.7363 33.8418 23.7139C33.834 23.6933 33.8335 23.6848 33.8334 23.6835C33.8333 23.6818 33.8322 23.6698 33.8379 23.6413C33.844 23.611 33.8586 23.5585 33.8935 23.4799C33.967 23.3142 34.1091 23.0803 34.3675 22.7548L32.0178 20.8896ZM32.5699 26.7358L35.2704 29.1398L37.2651 26.899L34.5646 24.495L32.5699 26.7358Z" fill="#F3F4F6" mask="url(#path-12-inside-1_205_3637)"/>
<path d="M39.7645 15.4531V19.4024" stroke="#F3F4F6" stroke-width="1.5" stroke-linecap="round" stroke-linejoin="round"/>
<path d="M49.0001 2H56.0001C56.5524 2 57.0001 2.44772 57.0001 3V9" stroke="#10B981" stroke-width="1.5" stroke-linecap="round"/>
<path d="M1.00012 9.5L1.00012 2.5C1.00012 1.94772 1.44784 1.5 2.00012 1.5L8.00012 1.5" stroke="#10B981" stroke-width="1.5" stroke-linecap="round"/>
<path d="M8.99988 58L1.99988 58C1.44759 58 0.999878 57.5523 0.999878 57L0.999879 51" stroke="#10B981" stroke-width="1.5" stroke-linecap="round"/>
<path d="M56.9999 50L56.9999 57C56.9999 57.5523 56.5522 58 55.9999 58L49.9999 58" stroke="#10B981" stroke-width="1.5" stroke-linecap="round"/>
</svg>
