<svg width="58" height="59" viewBox="0 0 58 59" fill="none" xmlns="http://www.w3.org/2000/svg">
<path d="M35.0549 48.545C34.2912 48.545 33.5094 48.2723 32.9094 47.7268L29.2731 44.3996C29.1276 44.2723 28.8367 44.2723 28.673 44.3996L25.0549 47.7268C23.8549 48.8359 21.9821 48.8177 20.7821 47.7268L17.1457 44.3996C17.0003 44.2723 16.7094 44.2723 16.5458 44.3996L14.7457 46.0541C13.0912 47.5632 11.7821 47.3269 11.1457 47.0359C10.5094 46.745 9.43665 45.945 9.43665 43.6723V29.3268C9.43665 18.3632 18.2003 9.4541 28.9821 9.4541C39.7639 9.4541 48.5276 18.3632 48.5276 29.3268V43.6723C48.5276 45.945 47.4548 46.7632 46.8185 47.0359C46.1821 47.3087 44.873 47.5632 43.2185 46.0541L41.4003 44.3996C41.2549 44.2723 40.9639 44.2723 40.8185 44.3996L37.1821 47.7268C36.6003 48.2723 35.8367 48.545 35.0549 48.545ZM29.0003 41.5632C29.7639 41.5632 30.5457 41.8359 31.1275 42.3813L34.7639 45.7086C34.9094 45.8359 35.2003 45.8359 35.3457 45.7086L38.9821 42.3813C40.1821 41.2904 42.0549 41.2904 43.2549 42.3813L45.0731 44.0359C45.3822 44.3086 45.5821 44.4359 45.7094 44.4723C45.7639 44.345 45.8185 44.0905 45.8185 43.6541V29.3087C45.8185 19.8541 38.273 12.1632 29.0003 12.1632C19.7276 12.1632 12.1821 19.8541 12.1821 29.3087V43.6541C12.1821 44.0905 12.2548 44.345 12.2912 44.4723C12.4185 44.4178 12.6366 44.3086 12.9275 44.0359L14.7457 42.3813C15.9457 41.2904 17.8185 41.2904 19.0185 42.3813L22.6549 45.7086C22.8003 45.8359 23.0912 45.8359 23.2367 45.7086L26.8731 42.3813C27.4549 41.8359 28.2367 41.5632 29.0003 41.5632Z" fill="#10B981"/>
<path d="M29.0004 36.4003C26.1458 36.4003 23.2913 35.5093 20.9094 33.7275C20.3094 33.273 20.1822 32.4184 20.6368 31.8184C21.0913 31.2184 21.9458 31.0911 22.5458 31.5457C26.3458 34.4002 31.6549 34.4002 35.4549 31.5457C36.0549 31.0911 36.9094 31.2184 37.364 31.8184C37.8185 32.4184 37.6913 33.273 37.0913 33.7275C34.7095 35.5093 31.8549 36.4003 29.0004 36.4003Z" fill="#10B981"/>
<path d="M28.9999 28.5459C26.2362 28.5459 23.9999 26.3095 23.9999 23.5459C23.9999 20.7823 26.2362 18.5459 28.9999 18.5459C31.7635 18.5459 33.9999 20.7823 33.9999 23.5459C33.9999 26.3095 31.7635 28.5459 28.9999 28.5459ZM28.9999 21.2732C27.7453 21.2732 26.7272 22.2914 26.7272 23.5459C26.7272 24.8004 27.7453 25.8186 28.9999 25.8186C30.2544 25.8186 31.2726 24.8004 31.2726 23.5459C31.2726 22.2914 30.2544 21.2732 28.9999 21.2732Z" fill="#F3F4F6"/>
<path d="M49.0001 1.5H56.0001C56.5524 1.5 57.0001 1.94772 57.0001 2.5V8.5" stroke="#10B981" stroke-width="1.5" stroke-linecap="round"/>
<path d="M1.00012 9L1.00012 2C1.00012 1.44772 1.44784 1 2.00012 1L8.00012 1" stroke="#10B981" stroke-width="1.5" stroke-linecap="round"/>
<path d="M8.99988 57.5L1.99988 57.5C1.44759 57.5 0.999878 57.0523 0.999878 56.5L0.999879 50.5" stroke="#10B981" stroke-width="1.5" stroke-linecap="round"/>
<path d="M56.9999 49.5L56.9999 56.5C56.9999 57.0523 56.5522 57.5 55.9999 57.5L49.9999 57.5" stroke="#10B981" stroke-width="1.5" stroke-linecap="round"/>
</svg>
