<svg width="58" height="59" viewBox="0 0 58 59" fill="none" xmlns="http://www.w3.org/2000/svg">
<path d="M49.0001 1.5H56.0001C56.5524 1.5 57.0001 1.94772 57.0001 2.5V8.5" stroke="#10B981" stroke-width="1.5" stroke-linecap="round"/>
<path d="M1.00012 9L1.00012 2C1.00012 1.44772 1.44784 1 2.00012 1L8.00012 1" stroke="#10B981" stroke-width="1.5" stroke-linecap="round"/>
<path d="M8.99988 57.5L1.99988 57.5C1.44759 57.5 0.999878 57.0523 0.999878 56.5L0.999879 50.5" stroke="#10B981" stroke-width="1.5" stroke-linecap="round"/>
<path d="M56.9999 49.5L56.9999 56.5C56.9999 57.0523 56.5522 57.5 55.9999 57.5L49.9999 57.5" stroke="#10B981" stroke-width="1.5" stroke-linecap="round"/>
<path d="M25.3556 20.7186C19.4469 16.6871 13.9383 19.7646 9.32214 24.5038L19.5393 30.6587" stroke="#10B981" stroke-width="3" stroke-linecap="round" stroke-linejoin="round"/>
<path d="M37.6037 32.9668C41.6351 38.8754 38.5577 44.384 33.8185 49.0002L27.6636 38.783" stroke="#10B981" stroke-width="3" stroke-linecap="round" stroke-linejoin="round"/>
<path d="M19.5394 30.628L27.6947 38.7832C34.2188 34.8748 41.6354 31.0896 45.0206 27.5813C52.3449 20.257 48.0981 10.2245 48.0981 10.2245C48.0981 10.2245 38.0656 5.97764 30.7413 13.3019C27.233 16.6871 23.417 24.1346 19.5394 30.628Z" stroke="#10B981" stroke-width="3" stroke-linecap="round" stroke-linejoin="round"/>
<path d="M24.0325 22.9043L35.419 34.2908" stroke="#10B981" stroke-width="3" stroke-linecap="round" stroke-linejoin="round"/>
<path d="M40.0966 19.7649C40.9463 19.7649 41.6353 19.076 41.6353 18.2262C41.6353 17.3764 40.9463 16.6875 40.0966 16.6875C39.2469 16.6875 38.5579 17.3764 38.5579 18.2262C38.5579 19.076 39.2469 19.7649 40.0966 19.7649Z" fill="#1F2937" stroke="#F3F4F6" stroke-width="2" stroke-linecap="round" stroke-linejoin="round"/>
<path d="M19.1084 45.7374C17.3235 47.4608 9.32214 48.9995 9.32214 48.9995C9.32214 48.9995 10.8609 40.9981 12.5842 39.2132C13.0068 38.7599 13.5165 38.3962 14.0827 38.1438C14.649 37.8915 15.2602 37.7558 15.88 37.7449C16.4998 37.7339 17.1155 37.848 17.6903 38.0801C18.2651 38.3122 18.7873 38.6578 19.2256 39.0963C19.6639 39.5345 20.0095 40.0568 20.2417 40.6316C20.4738 41.2062 20.5879 41.822 20.5769 42.4418C20.566 43.0616 20.4303 43.6728 20.178 44.239C19.9257 44.8053 19.5619 45.3149 19.1084 45.7374Z" fill="#F3F4F6" stroke="#10B981" stroke-width="3" stroke-linecap="round" stroke-linejoin="round"/>
</svg>
