<svg width="58" height="59" viewBox="0 0 58 59" fill="none" xmlns="http://www.w3.org/2000/svg">
<path d="M49.0001 1.5H56.0001C56.5524 1.5 57.0001 1.94772 57.0001 2.5V8.5" stroke="#10B981" stroke-width="1.5" stroke-linecap="round"/>
<path d="M1.00012 9L1.00012 2C1.00012 1.44772 1.44784 1 2.00012 1L8.00012 1" stroke="#10B981" stroke-width="1.5" stroke-linecap="round"/>
<path d="M8.99988 57.5L1.99988 57.5C1.44759 57.5 0.999878 57.0523 0.999878 56.5L0.999879 50.5" stroke="#10B981" stroke-width="1.5" stroke-linecap="round"/>
<path d="M56.9999 49.5L56.9999 56.5C56.9999 57.0523 56.5522 57.5 55.9999 57.5L49.9999 57.5" stroke="#10B981" stroke-width="1.5" stroke-linecap="round"/>
<path d="M9.32288 9V49H49.3229" stroke="#10B981" stroke-width="3" stroke-linecap="round" stroke-linejoin="round"/>
<path d="M21.7127 19.1035C24.7983 19.1035 27.2997 21.6049 27.2997 24.6905C27.2997 27.7761 24.7983 30.2775 21.7127 30.2775C18.6271 30.2775 16.1257 27.7761 16.1257 24.6905C16.1257 21.6049 18.6271 19.1035 21.7127 19.1035Z" stroke="#10B981" stroke-width="3" stroke-linecap="round" stroke-linejoin="round"/>
<path d="M35.9683 30.2773C39.054 30.2773 41.5554 32.7787 41.5554 35.8643C41.5554 38.9499 39.054 41.4513 35.9683 41.4513C32.8827 41.4513 30.3813 38.9499 30.3813 35.8643C30.3813 32.7787 32.8827 30.2773 35.9683 30.2773Z" stroke="#10B981" stroke-width="3" stroke-linecap="round" stroke-linejoin="round"/>
<path d="M9.32214 36.6253L17.2948 28.1113" stroke="#10B981" stroke-width="3" stroke-linecap="round" stroke-linejoin="round"/>
<path d="M26.5854 27.4766L31.6978 32.2448" stroke="#10B981" stroke-width="3" stroke-linecap="round" stroke-linejoin="round"/>
<path d="M38.4323 30.8197L42.1191 20.6934" stroke="#10B981" stroke-width="3" stroke-linecap="round" stroke-linejoin="round"/>
<path d="M43.9093 9C46.9946 9 49.496 11.5014 49.496 14.587C49.496 17.6726 46.9946 20.174 43.9093 20.174C40.8236 20.174 38.3221 17.6726 38.3221 14.587C38.3221 11.5014 40.8236 9 43.9093 9Z" fill="#1F2937" stroke="#F3F4F6" stroke-width="2" stroke-linecap="round" stroke-linejoin="round"/>
</svg>
